999
dxfrw 0.6.3
  0
SECTION
  2
HEADER
  9
$ACADVER
  1
AC1021
  9
$DWGCODEPAGE
  3
ANSI_1252
  9
$INSBASE
 10
0
 20
0
 30
0
  9
$EXTMIN
 10
124.5045079702101
 20
-139.7871282933167
 30
0
  9
$EXTMAX
 10
301.0486046661366
 20
-5.999999999999988
 30
0
  9
$LIMMIN
 10
0
 20
0
  9
$LIMMAX
 10
420
 20
297
  9
$ORTHOMODE
 70
    0
  9
$REGENMODE
 70
    1
  9
$FILLMODE
 70
    1
  9
$QTEXTMODE
 70
    0
  9
$MIRRTEXT
 70
    0
  9
$LTSCALE
 40
1
  9
$ATTMODE
 70
    0
  9
$TEXTSIZE
 40
2.5
  9
$TRACEWID
 40
15.68
  9
$TEXTSTYLE
  7
STANDARD
  9
$CLAYER
  8
noname
  9
$CELTYPE
  6
BYLAYER
  9
$CECOLOR
 62
  256
  9
$CELTSCALE
 40
1
  9
$DISPSILH
 70
    0
  9
$DIMSCALE
 40
2.5
  9
$DIMASZ
 40
2.5
  9
$DIMEXO
 40
0.625
  9
$DIMDLI
 40
3.75
  9
$DIMRND
 40
0
  9
$DIMDLE
 40
0
  9
$DIMEXE
 40
1.25
  9
$DIMTP
 40
0
  9
$DIMTM
 40
0
  9
$DIMTXT
 40
2.5
  9
$DIMCEN
 40
2.5
  9
$DIMTSZ
 40
0
  9
$DIMTOL
 70
    0
  9
$DIMLIM
 70
    0
  9
$DIMTIH
 70
    0
  9
$DIMTOH
 70
    0
  9
$DIMSE1
 70
    0
  9
$DIMSE2
 70
    0
  9
$DIMTAD
 70
    1
  9
$DIMZIN
 70
    8
  9
$DIMBLK
  1

  9
$DIMASO
 70
    1
  9
$DIMSHO
 70
    1
  9
$DIMPOST
  1

  9
$DIMAPOST
  1

  9
$DIMALT
 70
    0
  9
$DIMALTD
 70
    3
  9
$DIMALTF
 40
0.03937
  9
$DIMLFAC
 40
1
  9
$DIMTOFL
 70
    1
  9
$DIMTVP
 40
0
  9
$DIMTIX
 70
    0
  9
$DIMSOXD
 70
    0
  9
$DIMSAH
 70
    0
  9
$DIMBLK1
  1

  9
$DIMBLK2
  1

  9
$DIMSTYLE
  2
Standard
  9
$DIMCLRD
 70
    0
  9
$DIMCLRE
 70
    0
  9
$DIMCLRT
 70
    0
  9
$DIMTFAC
 40
1
  9
$DIMGAP
 40
0.625
  9
$DIMJUST
 70
    0
  9
$DIMSD1
 70
    0
  9
$DIMSD2
 70
    0
  9
$DIMTOLJ
 70
    0
  9
$DIMTZIN
 70
    8
  9
$DIMALTZ
 70
    0
  9
$DIMALTTZ
 70
    0
  9
$DIMUPT
 70
    0
  9
$DIMDEC
 70
    2
  9
$DIMTDEC
 70
    2
  9
$DIMALTU
 70
    2
  9
$DIMALTTD
 70
    3
  9
$DIMTXSTY
  7
STANDARD
  9
$DIMAUNIT
 70
    0
  9
$DIMADEC
 70
    0
  9
$DIMALTRND
 40
0
  9
$DIMAZIN
 70
    0
  9
$DIMDSEP
 70
   44
  9
$DIMATFIT
 70
    3
  9
$DIMFRAC
 70
    0
  9
$DIMLDRBLK
  1
STANDARD
  9
$DIMLUNIT
 70
    2
  9
$DIMLWD
 70
   -2
  9
$DIMLWE
 70
   -2
  9
$DIMTMOVE
 70
    0
  9
$DIMFXL
 40
1
  9
$DIMFXLON
 70
    0
  9
$DIMJOGANG
 40
0.7854
  9
$DIMTFILL
 70
    0
  9
$DIMTFILLCLR
 70
    0
  9
$DIMARCSYM
 70
    0
  9
$DIMLTYPE
  6

  9
$DIMLTEX1
  6

  9
$DIMLTEX2
  6

  9
$LUNITS
 70
    2
  9
$LUPREC
 70
    4
  9
$SKETCHINC
 40
1
  9
$FILLETRAD
 40
0
  9
$AUNITS
 70
    0
  9
$AUPREC
 70
    2
  9
$MENU
  1
.
  9
$ELEVATION
 40
0
  9
$PELEVATION
 40
0
  9
$THICKNESS
 40
0
  9
$LIMCHECK
 70
    0
  9
$CHAMFERA
 40
0
  9
$CHAMFERB
 40
0
  9
$CHAMFERC
 40
0
  9
$CHAMFERD
 40
0
  9
$SKPOLY
 70
    0
  9
$USRTIMER
 70
    1
  9
$ANGBASE
 50
0
  9
$ANGDIR
 70
    0
  9
$PDMODE
 70
   34
  9
$PDSIZE
 40
0
  9
$PLINEWID
 40
0
  9
$SPLFRAME
 70
    0
  9
$SPLINETYPE
 70
    2
  9
$SPLINESEGS
 70
    8
  9
$HANDSEED
  5
20000
  9
$SURFTAB1
 70
    6
  9
$SURFTAB2
 70
    6
  9
$SURFTYPE
 70
    6
  9
$SURFU
 70
    6
  9
$SURFV
 70
    6
  9
$UCSBASE
  2

  9
$UCSNAME
  2

  9
$UCSORG
 10
0
 20
0
 30
0
  9
$UCSXDIR
 10
1
 20
0
 30
0
  9
$UCSYDIR
 10
0
 20
1
 30
0
  9
$UCSORTHOREF
  2

  9
$UCSORTHOVIEW
 70
    0
  9
$UCSORGTOP
 10
0
 20
0
 30
0
  9
$UCSORGBOTTOM
 10
0
 20
0
 30
0
  9
$UCSORGLEFT
 10
0
 20
0
 30
0
  9
$UCSORGRIGHT
 10
0
 20
0
 30
0
  9
$UCSORGFRONT
 10
0
 20
0
 30
0
  9
$UCSORGBACK
 10
0
 20
0
 30
0
  9
$PUCSBASE
  2

  9
$PUCSNAME
  2

  9
$PUCSORG
 10
0
 20
0
 30
0
  9
$PUCSXDIR
 10
1
 20
0
 30
0
  9
$PUCSYDIR
 10
0
 20
1
 30
0
  9
$PUCSORTHOREF
  2

  9
$PUCSORTHOVIEW
 70
    0
  9
$PUCSORGTOP
 10
0
 20
0
 30
0
  9
$PUCSORGBOTTOM
 10
0
 20
0
 30
0
  9
$PUCSORGLEFT
 10
0
 20
0
 30
0
  9
$PUCSORGRIGHT
 10
0
 20
0
 30
0
  9
$PUCSORGFRONT
 10
0
 20
0
 30
0
  9
$PUCSORGBACK
 10
0
 20
0
 30
0
  9
$USERI1
 70
    0
  9
$USERI2
 70
    0
  9
$USERI3
 70
    0
  9
$USERI4
 70
    0
  9
$USERI5
 70
    0
  9
$USERR1
 40
0
  9
$USERR2
 40
0
  9
$USERR3
 40
0
  9
$USERR4
 40
0
  9
$USERR5
 40
0
  9
$WORLDVIEW
 70
    1
  9
$SHADEDGE
 70
    3
  9
$SHADEDIF
 70
   70
  9
$TILEMODE
 70
    1
  9
$MAXACTVP
 70
   64
  9
$PINSBASE
 10
0
 20
0
 30
0
  9
$PLIMCHECK
 70
    0
  9
$PEXTMIN
 10
0
 20
0
 30
0
  9
$PEXTMAX
 10
0
 20
0
 30
0
  9
$GRIDMODE
 70
    1
  9
$SNAPSTYLE
 70
    0
  9
$PLIMMIN
 10
0
 20
0
  9
$PLIMMAX
 10
210
 20
297
  9
$UNITMODE
 70
    0
  9
$VISRETAIN
 70
    1
  9
$PLINEGEN
 70
    0
  9
$PSLTSCALE
 70
    1
  9
$TREEDEPTH
 70
 3020
  9
$CMLSTYLE
  2
Standard
  9
$CMLJUST
 70
    0
  9
$CMLSCALE
 40
20
  9
$PROXYGRAPHICS
 70
    1
  9
$MEASUREMENT
 70
    1
  9
$CELWEIGHT
370
   -1
  9
$ENDCAPS
280
    0
  9
$JOINSTYLE
280
    0
  9
$LWDISPLAY
290
    0
  9
$INSUNITS
 70
    4
  9
$HYPERLINKBASE
  1

  9
$STYLESHEET
  1

  9
$XEDIT
290
    1
  9
$CEPSNTYPE
380
    0
  9
$PSTYLEMODE
290
    1
  9
$EXTNAMES
290
    1
  9
$PSVPSCALE
 40
1
  9
$OLESTARTUP
290
    0
  9
$SORTENTS
280
  127
  9
$INDEXCTL
280
    0
  9
$HIDETEXT
280
    1
  9
$XCLIPFRAME
290
    0
  9
$HALOGAP
280
    0
  9
$OBSCOLOR
 70
  257
  9
$OBSLTYPE
280
    0
  9
$INTERSECTIONDISPLAY
280
    0
  9
$INTERSECTIONCOLOR
 70
  257
  9
$DIMASSOC
280
    1
  9
$PROJECTNAME
  1

  9
$CAMERADISPLAY
290
    0
  9
$LENSLENGTH
 40
50
  9
$CAMERAHEIGHT
 40
0
  9
$STEPSPERSEC
 40
2
  9
$STEPSIZE
 40
50
  9
$3DDWFPREC
 40
2
  9
$PSOLWIDTH
 40
5
  9
$PSOLHEIGHT
 40
80
  9
$LOFTANG1
 40
1.570796326794897
  9
$LOFTANG2
 40
1.570796326794897
  9
$LOFTMAG1
 40
0
  9
$LOFTMAG2
 40
0
  9
$LOFTPARAM
 70
    7
  9
$LOFTNORMALS
280
    1
  9
$LATITUDE
 40
1
  9
$LONGITUDE
 40
1
  9
$NORTHDIRECTION
 40
0
  9
$TIMEZONE
 70
-8000
  9
$LIGHTGLYPHDISPLAY
280
    1
  9
$TILEMODELIGHTSYNCH
280
    1
  9
$SOLIDHIST
280
    1
  9
$SHOWHIST
280
    1
  9
$DWFFRAME
280
    2
  9
$DGNFRAME
280
    0
  9
$REALWORLDSCALE
290
    1
  9
$INTERFERECOLOR
 62
    1
  9
$CSHADOW
280
    0
  9
$SHADOWPLANELOCATION
 40
0
  0
ENDSEC
  0
SECTION
  2
CLASSES
  0
ENDSEC
  0
SECTION
  2
TABLES
  0
TABLE
  2
VPORT
  5
8
330
0
100
AcDbSymbolTable
 70
    1
  0
VPORT
  5
31
330
2
100
AcDbSymbolTableRecord
100
AcDbViewportTableRecord
  2
*ACTIVE
 70
    0
 10
0
 20
0
 11
1
 21
1
 12
246.0422163588512
 22
35.94986807388041
 13
0
 23
0
 14
10
 24
10
 15
10
 25
10
 16
0
 26
0
 36
1
 17
0
 27
0
 37
0
 40
263.8522427440764
 41
2.601666666666667
 42
50
 43
0
 44
0
 50
0
 51
0
 71
    0
 72
  100
 73
    1
 74
    3
 75
    0
 76
    1
 77
    0
 78
    0
281
    0
 65
    1
110
0
120
0
130
0
111
1
121
0
131
0
112
0
122
1
132
0
 79
    0
146
0
348
10020
 60
    7
 61
    5
292
1
282
    1
141
0
142
0
 63
  250
421
3358443
  0
ENDTAB
  0
TABLE
  2
LTYPE
  5
5
330
0
100
AcDbSymbolTable
 70
    4
  0
LTYPE
  5
14
330
5
100
AcDbSymbolTableRecord
100
AcDbLinetypeTableRecord
  2
ByBlock
 70
    0
  3

 72
   65
 73
    0
 40
0
  0
LTYPE
  5
15
330
5
100
AcDbSymbolTableRecord
100
AcDbLinetypeTableRecord
  2
ByLayer
 70
    0
  3

 72
   65
 73
    0
 40
0
  0
LTYPE
  5
16
330
5
100
AcDbSymbolTableRecord
100
AcDbLinetypeTableRecord
  2
Continuous
 70
    0
  3
Solid line
 72
   65
 73
    0
 40
0
  0
LTYPE
  5
32
330
5
100
AcDbSymbolTableRecord
100
AcDbLinetypeTableRecord
  2
DOT
 70
    0
  3
Dot . . . . . . . . . . . . . . . . . . . . . .
 72
   65
 73
    2
 40
6.35
 49
0
 74
    0
 49
-6.35
 74
    0
  0
LTYPE
  5
33
330
5
100
AcDbSymbolTableRecord
100
AcDbLinetypeTableRecord
  2
DOTTINY
 70
    0
  3
Dot (.15x) .....................................
 72
   65
 73
    2
 40
0.9525
 49
0
 74
    0
 49
-0.9525
 74
    0
  0
LTYPE
  5
34
330
5
100
AcDbSymbolTableRecord
100
AcDbLinetypeTableRecord
  2
DOT2
 70
    0
  3
Dot (.5x) .....................................
 72
   65
 73
    2
 40
3.175
 49
0
 74
    0
 49
-3.175
 74
    0
  0
LTYPE
  5
35
330
5
100
AcDbSymbolTableRecord
100
AcDbLinetypeTableRecord
  2
DOTX2
 70
    0
  3
Dot (2x) .  .  .  .  .  .  .  .  .  .  .  .  .
 72
   65
 73
    2
 40
12.7
 49
0
 74
    0
 49
-12.7
 74
    0
  0
LTYPE
  5
36
330
5
100
AcDbSymbolTableRecord
100
AcDbLinetypeTableRecord
  2
DASHED
 70
    0
  3
Dashed _ _ _ _ _ _ _ _ _ _ _ _ _ _ _ _ _
 72
   65
 73
    2
 40
19.05
 49
12.7
 74
    0
 49
-6.35
 74
    0
  0
LTYPE
  5
37
330
5
100
AcDbSymbolTableRecord
100
AcDbLinetypeTableRecord
  2
DASHEDTINY
 70
    0
  3
Dashed (.15x) _ _ _ _ _ _ _ _ _ _ _ _ _ _ _ _ _
 72
   65
 73
    2
 40
2.8575
 49
1.905
 74
    0
 49
-0.9525
 74
    0
  0
LTYPE
  5
38
330
5
100
AcDbSymbolTableRecord
100
AcDbLinetypeTableRecord
  2
DASHED2
 70
    0
  3
Dashed (.5x) _ _ _ _ _ _ _ _ _ _ _ _ _ _ _ _ _
 72
   65
 73
    2
 40
9.524999999999999
 49
6.35
 74
    0
 49
-3.175
 74
    0
  0
LTYPE
  5
39
330
5
100
AcDbSymbolTableRecord
100
AcDbLinetypeTableRecord
  2
DASHEDX2
 70
    0
  3
Dashed (2x) ____  ____  ____  ____  ____  ___
 72
   65
 73
    2
 40
38.09999999999999
 49
25.4
 74
    0
 49
-12.7
 74
    0
  0
LTYPE
  5
3A
330
5
100
AcDbSymbolTableRecord
100
AcDbLinetypeTableRecord
  2
DASHDOT
 70
    0
  3
Dash dot __ . __ . __ . __ . __ . __ . __ . __
 72
   65
 73
    4
 40
25.4
 49
12.7
 74
    0
 49
-6.35
 74
    0
 49
0
 74
    0
 49
-6.35
 74
    0
  0
LTYPE
  5
3B
330
5
100
AcDbSymbolTableRecord
100
AcDbLinetypeTableRecord
  2
DASHDOTTINY
 70
    0
  3
Dash dot (.15x) _._._._._._._._._._._._._._._.
 72
   65
 73
    4
 40
3.81
 49
1.905
 74
    0
 49
-0.9525
 74
    0
 49
0
 74
    0
 49
-0.9525
 74
    0
  0
LTYPE
  5
3C
330
5
100
AcDbSymbolTableRecord
100
AcDbLinetypeTableRecord
  2
DASHDOT2
 70
    0
  3
Dash dot (.5x) _._._._._._._._._._._._._._._.
 72
   65
 73
    4
 40
12.7
 49
6.35
 74
    0
 49
-3.175
 74
    0
 49
0
 74
    0
 49
-3.175
 74
    0
  0
LTYPE
  5
3D
330
5
100
AcDbSymbolTableRecord
100
AcDbLinetypeTableRecord
  2
DASHDOTX2
 70
    0
  3
Dash dot (2x) ____  .  ____  .  ____  .  ___
 72
   65
 73
    4
 40
50.8
 49
25.4
 74
    0
 49
-12.7
 74
    0
 49
0
 74
    0
 49
-12.7
 74
    0
  0
LTYPE
  5
3E
330
5
100
AcDbSymbolTableRecord
100
AcDbLinetypeTableRecord
  2
DIVIDE
 70
    0
  3
Divide ____ . . ____ . . ____ . . ____ . . ____
 72
   65
 73
    6
 40
31.75
 49
12.7
 74
    0
 49
-6.35
 74
    0
 49
0
 74
    0
 49
-6.35
 74
    0
 49
0
 74
    0
 49
-6.35
 74
    0
  0
LTYPE
  5
3F
330
5
100
AcDbSymbolTableRecord
100
AcDbLinetypeTableRecord
  2
DIVIDETINY
 70
    0
  3
Divide (.15x) __..__..__..__..__..__..__..__.._
 72
   65
 73
    6
 40
4.7625
 49
1.905
 74
    0
 49
-0.9525
 74
    0
 49
0
 74
    0
 49
-0.9525
 74
    0
 49
0
 74
    0
 49
-0.9525
 74
    0
  0
LTYPE
  5
40
330
5
100
AcDbSymbolTableRecord
100
AcDbLinetypeTableRecord
  2
DIVIDE2
 70
    0
  3
Divide (.5x) __..__..__..__..__..__..__..__.._
 72
   65
 73
    6
 40
15.875
 49
6.35
 74
    0
 49
-3.175
 74
    0
 49
0
 74
    0
 49
-3.175
 74
    0
 49
0
 74
    0
 49
-3.175
 74
    0
  0
LTYPE
  5
41
330
5
100
AcDbSymbolTableRecord
100
AcDbLinetypeTableRecord
  2
DIVIDEX2
 70
    0
  3
Divide (2x) ________  .  .  ________  .  .  _
 72
   65
 73
    6
 40
63.5
 49
25.4
 74
    0
 49
-12.7
 74
    0
 49
0
 74
    0
 49
-12.7
 74
    0
 49
0
 74
    0
 49
-12.7
 74
    0
  0
LTYPE
  5
42
330
5
100
AcDbSymbolTableRecord
100
AcDbLinetypeTableRecord
  2
BORDER
 70
    0
  3
Border __ __ . __ __ . __ __ . __ __ . __ __ .
 72
   65
 73
    6
 40
44.45
 49
12.7
 74
    0
 49
-6.35
 74
    0
 49
12.7
 74
    0
 49
-6.35
 74
    0
 49
0
 74
    0
 49
-6.35
 74
    0
  0
LTYPE
  5
43
330
5
100
AcDbSymbolTableRecord
100
AcDbLinetypeTableRecord
  2
BORDERTINY
 70
    0
  3
Border (.15x) __.__.__.__.__.__.__.__.__.__.__.
 72
   65
 73
    6
 40
6.6675
 49
1.905
 74
    0
 49
-0.9525
 74
    0
 49
1.905
 74
    0
 49
-0.9525
 74
    0
 49
0
 74
    0
 49
-0.9525
 74
    0
  0
LTYPE
  5
44
330
5
100
AcDbSymbolTableRecord
100
AcDbLinetypeTableRecord
  2
BORDER2
 70
    0
  3
Border (.5x) __.__.__.__.__.__.__.__.__.__.__.
 72
   65
 73
    6
 40
22.225
 49
6.35
 74
    0
 49
-3.175
 74
    0
 49
6.35
 74
    0
 49
-3.175
 74
    0
 49
0
 74
    0
 49
-3.175
 74
    0
  0
LTYPE
  5
45
330
5
100
AcDbSymbolTableRecord
100
AcDbLinetypeTableRecord
  2
BORDERX2
 70
    0
  3
Border (2x) ____  ____  .  ____  ____  .  ___
 72
   65
 73
    6
 40
88.89999999999999
 49
25.4
 74
    0
 49
-12.7
 74
    0
 49
25.4
 74
    0
 49
-12.7
 74
    0
 49
0
 74
    0
 49
-12.7
 74
    0
  0
LTYPE
  5
46
330
5
100
AcDbSymbolTableRecord
100
AcDbLinetypeTableRecord
  2
CENTER
 70
    0
  3
Center ____ _ ____ _ ____ _ ____ _ ____ _ ____
 72
   65
 73
    4
 40
50.8
 49
31.75
 74
    0
 49
-6.35
 74
    0
 49
6.35
 74
    0
 49
-6.35
 74
    0
  0
LTYPE
  5
47
330
5
100
AcDbSymbolTableRecord
100
AcDbLinetypeTableRecord
  2
CENTERTINY
 70
    0
  3
Center (.15x) ___ _ ___ _ ___ _ ___ _ ___ _ ___
 72
   65
 73
    4
 40
7.62
 49
4.7625
 74
    0
 49
-0.9525
 74
    0
 49
0.9525
 74
    0
 49
-0.9525
 74
    0
  0
LTYPE
  5
48
330
5
100
AcDbSymbolTableRecord
100
AcDbLinetypeTableRecord
  2
CENTER2
 70
    0
  3
Center (.5x) ___ _ ___ _ ___ _ ___ _ ___ _ ___
 72
   65
 73
    4
 40
28.575
 49
19.05
 74
    0
 49
-3.175
 74
    0
 49
3.175
 74
    0
 49
-3.175
 74
    0
  0
LTYPE
  5
49
330
5
100
AcDbSymbolTableRecord
100
AcDbLinetypeTableRecord
  2
CENTERX2
 70
    0
  3
Center (2x) ________  __  ________  __  _____
 72
   65
 73
    4
 40
101.6
 49
63.5
 74
    0
 49
-12.7
 74
    0
 49
12.7
 74
    0
 49
-12.7
 74
    0
  0
ENDTAB
  0
TABLE
  2
LAYER
  5
2
330
0
100
AcDbSymbolTable
 70
    1
  0
LAYER
  5
10
330
2
100
AcDbSymbolTableRecord
100
AcDbLayerTableRecord
  2
0
 70
    0
 62
    7
  6
CONTINUOUS
370
   -3
390
F
  0
LAYER
  5
4A
330
2
100
AcDbSymbolTableRecord
100
AcDbLayerTableRecord
  2
noname
 70
    0
 62
    3
  6
CONTINUOUS
370
    0
390
F
  0
ENDTAB
  0
TABLE
  2
STYLE
  5
3
330
0
100
AcDbSymbolTable
 70
    3
  0
STYLE
  5
4B
330
2
100
AcDbSymbolTableRecord
100
AcDbTextStyleTableRecord
  2
Standard
 70
    0
 40
0
 41
1
 50
0
 71
    0
 42
1
  3
txt
  4

  0
ENDTAB
  0
TABLE
  2
VIEW
  5
6
330
0
100
AcDbSymbolTable
 70
    0
  0
ENDTAB
  0
TABLE
  2
UCS
  5
7
330
0
100
AcDbSymbolTable
 70
    0
  0
ENDTAB
  0
TABLE
  2
APPID
  5
9
330
0
100
AcDbSymbolTable
 70
    1
  0
APPID
  5
12
330
9
100
AcDbSymbolTableRecord
100
AcDbRegAppTableRecord
  2
ACAD
 70
    0
  0
APPID
  5
4C
330
9
100
AcDbSymbolTableRecord
100
AcDbRegAppTableRecord
  2
LibreCad
 70
    0
  0
ENDTAB
  0
TABLE
  2
DIMSTYLE
  5
A
330
0
100
AcDbSymbolTable
 70
    1
100
AcDbDimStyleTable
 71
    1
  0
DIMSTYLE
105
4D
330
A
100
AcDbSymbolTableRecord
100
AcDbDimStyleTableRecord
  2
Standard
 70
    0
 40
2.5
 41
2.5
 42
0.625
 43
0.38
 44
1.25
 45
0
 46
0
 47
0
 48
0
 49
1
140
2.5
141
0.09
142
0
143
25.4
144
1
145
0
146
1
147
0.625
148
0
 71
    0
 72
    0
 73
    0
 74
    1
 75
    0
 76
    0
 77
    0
 78
    8
 79
    0
170
    0
171
    2
172
    0
173
    0
174
    0
175
    0
176
    0
177
    0
178
    0
179
    0
271
    2
272
    4
273
    2
274
    2
275
    0
276
    0
277
    2
278
   44
279
    0
280
    0
281
    0
282
    0
283
    1
284
    0
285
    0
286
    0
288
    0
289
    3
340
STANDARD
341

371
   -2
372
   -2
  0
ENDTAB
  0
TABLE
  2
BLOCK_RECORD
  5
1
330
0
100
AcDbSymbolTable
 70
    2
  0
BLOCK_RECORD
  5
1F
330
1
100
AcDbSymbolTableRecord
100
AcDbBlockTableRecord
  2
*Model_Space
 70
    0
280
    1
281
    0
  0
BLOCK_RECORD
  5
1E
330
1
100
AcDbSymbolTableRecord
100
AcDbBlockTableRecord
  2
*Paper_Space
 70
    0
280
    1
281
    0
  0
ENDTAB
  0
ENDSEC
  0
SECTION
  2
BLOCKS
  0
BLOCK
  5
20
330
1F
100
AcDbEntity
  8
0
100
AcDbBlockBegin
  2
*Model_Space
 70
    0
 10
0
 20
0
 30
0
  3
*Model_Space
  1

  0
ENDBLK
  5
21
330
1F
100
AcDbEntity
  8
0
100
AcDbBlockEnd
  0
BLOCK
  5
1C
330
1B
100
AcDbEntity
  8
0
100
AcDbBlockBegin
  2
*Paper_Space
 70
    0
 10
0
 20
0
 30
0
  3
*Paper_Space
  1

  0
ENDBLK
  5
1D
330
1F
100
AcDbEntity
  8
0
100
AcDbBlockEnd
  0
ENDSEC
  0
SECTION
  2
ENTITIES
  0
LWPOLYLINE
  5
4E
100
AcDbEntity
  8
0
  6
ByLayer
 62
  256
370
   -1
100
AcDbPolyline
 90
    8
 70
    1
 43
0
 10
111.76
 20
-12
 42
0.4142135623730971
 10
111.26
 20
-12.50000000000003
 10
111.26
 20
-25.50000000000001
 42
0.414213562373095
 10
111.76
 20
-26.00000000000001
 10
124.76
 20
-26.00000000000003
 42
0.4142135623731075
 10
125.26
 20
-25.50000000000001
 10
125.26
 20
-12.50000000000003
 42
0.414213562373095
 10
124.76
 20
-12.00000000000003
  0
LWPOLYLINE
  5
4F
100
AcDbEntity
  8
0
  6
ByLayer
 62
  256
370
   -1
100
AcDbPolyline
 90
    8
 70
    1
 43
0
 10
92.70799999999997
 20
-12
 42
0.4142135623730971
 10
92.20799999999997
 20
-12.50000000000003
 10
92.20799999999997
 20
-25.50000000000001
 42
0.414213562373095
 10
92.70799999999997
 20
-26.00000000000001
 10
105.708
 20
-26.00000000000003
 42
0.4142135623731137
 10
106.2080000000001
 20
-25.50000000000001
 10
106.208
 20
-12.5
 42
0.4142135623731106
 10
105.708
 20
-12.00000000000003
  0
LWPOLYLINE
  5
50
100
AcDbEntity
  8
0
  6
ByLayer
 62
  256
370
   -1
100
AcDbPolyline
 90
    8
 70
    1
 43
0
 10
73.65600000000003
 20
-12
 42
0.4142135623731127
 10
73.15599999999995
 20
-12.50000000000003
 10
73.15600000000001
 20
-25.50000000000001
 42
0.414213562373095
 10
73.65600000000006
 20
-26.00000000000001
 10
86.65600000000006
 20
-26.00000000000003
 42
0.4142135623731075
 10
87.15600000000006
 20
-25.50000000000001
 10
87.15600000000006
 20
-12.50000000000003
 42
0.414213562373095
 10
86.65600000000006
 20
-12.00000000000003
  0
LWPOLYLINE
  5
51
100
AcDbEntity
  8
0
  6
ByLayer
 62
  256
370
   -1
100
AcDbPolyline
 90
    8
 70
    1
 43
0
 10
54.60399999999998
 20
-12
 42
0.4142135623730971
 10
54.10399999999998
 20
-12.50000000000003
 10
54.10399999999998
 20
-25.50000000000001
 42
0.414213562373095
 10
54.60399999999998
 20
-26.00000000000001
 10
67.60399999999998
 20
-26.00000000000003
 42
0.4142135623731075
 10
68.10399999999998
 20
-25.50000000000001
 10
68.10399999999998
 20
-12.50000000000003
 42
0.414213562373095
 10
67.60399999999998
 20
-12.00000000000003
  0
LWPOLYLINE
  5
52
100
AcDbEntity
  8
0
  6
ByLayer
 62
  256
370
   -1
100
AcDbPolyline
 90
    8
 70
    1
 43
0
 10
35.55200000000002
 20
-12
 42
0.4142135623730971
 10
35.05200000000002
 20
-12.50000000000003
 10
35.05200000000002
 20
-25.50000000000001
 42
0.414213562373095
 10
35.55200000000002
 20
-26.00000000000001
 10
48.55200000000002
 20
-26.00000000000003
 42
0.4142135623730971
 10
49.05200000000002
 20
-25.50000000000001
 10
49.05200000000002
 20
-12.50000000000003
 42
0.414213562373095
 10
48.55200000000002
 20
-12.00000000000003
  0
LWPOLYLINE
  5
53
100
AcDbEntity
  8
0
  6
ByLayer
 62
  256
370
   -1
100
AcDbPolyline
 90
    8
 70
    1
 43
0
 10
16.5
 20
-12
 42
0.4142135623730784
 10
15.99999999999994
 20
-12.50000000000003
 10
15.99999999999997
 20
-25.50000000000004
 42
0.4142135623730784
 10
16.5
 20
-26.00000000000001
 10
29.5
 20
-26.00000000000003
 42
0.4142135623730971
 10
30
 20
-25.50000000000001
 10
30
 20
-12.50000000000003
 42
0.414213562373095
 10
29.5
 20
-12.00000000000003
  0
LWPOLYLINE
  5
54
100
AcDbEntity
  8
0
  6
ByLayer
 62
  256
370
   -1
100
AcDbPolyline
 90
    8
 70
    1
 43
0
 10
16.5
 20
-31.05000000000003
 42
0.4142135623730805
 10
15.99999999999994
 20
-31.55000000000003
 10
15.99999999999997
 20
-44.55000000000003
 42
0.4142135623730784
 10
16.5
 20
-45.05000000000003
 10
29.5
 20
-45.05000000000003
 42
0.414213562373095
 10
30
 20
-44.55000000000003
 10
30
 20
-31.55000000000002
 42
0.4142135623730929
 10
29.5
 20
-31.05000000000003
  0
LWPOLYLINE
  5
55
100
AcDbEntity
  8
0
  6
ByLayer
 62
  256
370
   -1
100
AcDbPolyline
 90
    8
 70
    1
 43
0
 10
35.55200000000002
 20
-31.05
 42
0.414213562373095
 10
35.05200000000002
 20
-31.55000000000003
 10
35.05200000000002
 20
-44.55000000000003
 42
0.414213562373095
 10
35.55200000000002
 20
-45.05000000000003
 10
48.55200000000002
 20
-45.05000000000003
 42
0.414213562373095
 10
49.05200000000002
 20
-44.55000000000003
 10
49.05200000000002
 20
-31.55000000000002
 42
0.4142135623730867
 10
48.55200000000002
 20
-31.05000000000003
  0
LWPOLYLINE
  5
56
100
AcDbEntity
  8
0
  6
ByLayer
 62
  256
370
   -1
100
AcDbPolyline
 90
    8
 70
    1
 43
0
 10
54.60399999999998
 20
-31.05
 42
0.414213562373095
 10
54.10399999999998
 20
-31.55000000000003
 10
54.10399999999998
 20
-44.55000000000003
 42
0.414213562373095
 10
54.60399999999998
 20
-45.05000000000003
 10
67.60399999999998
 20
-45.05000000000003
 42
0.414213562373095
 10
68.10399999999998
 20
-44.55000000000003
 10
68.10399999999998
 20
-31.55000000000002
 42
0.4142135623730867
 10
67.60399999999998
 20
-31.05000000000003
  0
LWPOLYLINE
  5
57
100
AcDbEntity
  8
0
  6
ByLayer
 62
  256
370
   -1
100
AcDbPolyline
 90
    8
 70
    1
 43
0
 10
73.65600000000003
 20
-31.05
 42
0.4142135623731096
 10
73.15599999999995
 20
-31.55000000000003
 10
73.15600000000001
 20
-44.55000000000003
 42
0.414213562373095
 10
73.65600000000006
 20
-45.05000000000003
 10
86.65600000000006
 20
-45.05000000000003
 42
0.414213562373095
 10
87.15600000000006
 20
-44.55000000000003
 10
87.15600000000006
 20
-31.55000000000002
 42
0.4142135623730867
 10
86.65600000000006
 20
-31.05000000000003
  0
LWPOLYLINE
  5
58
100
AcDbEntity
  8
0
  6
ByLayer
 62
  256
370
   -1
100
AcDbPolyline
 90
    8
 70
    1
 43
0
 10
92.70799999999997
 20
-31.05
 42
0.414213562373095
 10
92.20799999999997
 20
-31.55000000000003
 10
92.20799999999997
 20
-44.55000000000003
 42
0.414213562373095
 10
92.70799999999997
 20
-45.05000000000003
 10
105.708
 20
-45.05000000000003
 42
0.4142135623731159
 10
106.2080000000001
 20
-44.55000000000003
 10
106.208
 20
-31.55000000000002
 42
0.4142135623731034
 10
105.708
 20
-31.05000000000003
  0
LWPOLYLINE
  5
59
100
AcDbEntity
  8
0
  6
ByLayer
 62
  256
370
   -1
100
AcDbPolyline
 90
    8
 70
    1
 43
0
 10
111.76
 20
-31.05
 42
0.414213562373095
 10
111.26
 20
-31.55000000000003
 10
111.26
 20
-44.55000000000003
 42
0.414213562373095
 10
111.76
 20
-45.05000000000003
 10
124.76
 20
-45.05000000000003
 42
0.414213562373095
 10
125.26
 20
-44.55000000000003
 10
125.26
 20
-31.55000000000002
 42
0.4142135623730867
 10
124.76
 20
-31.05000000000003
  0
LWPOLYLINE
  5
5A
100
AcDbEntity
  8
0
  6
ByLayer
 62
  256
370
   -1
100
AcDbPolyline
 90
    8
 70
    1
 43
0
 10
111.76
 20
-50.10000000000002
 42
0.414213562373095
 10
111.26
 20
-50.60000000000002
 10
111.26
 20
-63.60000000000003
 42
0.4142135623730909
 10
111.76
 20
-64.10000000000002
 10
124.76
 20
-64.10000000000004
 42
0.4142135623730992
 10
125.26
 20
-63.60000000000003
 10
125.26
 20
-50.60000000000002
 42
0.414213562373095
 10
124.76
 20
-50.10000000000002
  0
LWPOLYLINE
  5
5B
100
AcDbEntity
  8
0
  6
ByLayer
 62
  256
370
   -1
100
AcDbPolyline
 90
    8
 70
    1
 43
0
 10
92.70799999999997
 20
-50.10000000000002
 42
0.414213562373095
 10
92.20799999999997
 20
-50.60000000000002
 10
92.20799999999997
 20
-63.60000000000003
 42
0.4142135623730909
 10
92.70799999999997
 20
-64.10000000000002
 10
105.708
 20
-64.10000000000004
 42
0.4142135623731075
 10
106.2080000000001
 20
-63.60000000000003
 10
106.208
 20
-50.60000000000002
 42
0.4142135623730992
 10
105.708
 20
-50.10000000000002
  0
LWPOLYLINE
  5
5C
100
AcDbEntity
  8
0
  6
ByLayer
 62
  256
370
   -1
100
AcDbPolyline
 90
    8
 70
    1
 43
0
 10
73.65600000000003
 20
-50.10000000000002
 42
0.4142135623731075
 10
73.15599999999995
 20
-50.60000000000002
 10
73.15600000000001
 20
-63.60000000000003
 42
0.4142135623730909
 10
73.65600000000006
 20
-64.10000000000002
 10
86.65600000000006
 20
-64.10000000000004
 42
0.4142135623730992
 10
87.15600000000006
 20
-63.60000000000003
 10
87.15600000000006
 20
-50.60000000000002
 42
0.414213562373095
 10
86.65600000000006
 20
-50.10000000000002
  0
LWPOLYLINE
  5
5D
100
AcDbEntity
  8
0
  6
ByLayer
 62
  256
370
   -1
100
AcDbPolyline
 90
    8
 70
    1
 43
0
 10
54.60399999999998
 20
-50.10000000000002
 42
0.414213562373095
 10
54.10399999999998
 20
-50.60000000000002
 10
54.10399999999998
 20
-63.60000000000003
 42
0.4142135623730909
 10
54.60399999999998
 20
-64.10000000000002
 10
67.60399999999998
 20
-64.10000000000004
 42
0.4142135623730992
 10
68.10399999999998
 20
-63.60000000000003
 10
68.10399999999998
 20
-50.60000000000002
 42
0.414213562373095
 10
67.60399999999998
 20
-50.10000000000002
  0
LWPOLYLINE
  5
5E
100
AcDbEntity
  8
0
  6
ByLayer
 62
  256
370
   -1
100
AcDbPolyline
 90
    8
 70
    1
 43
0
 10
35.55200000000002
 20
-50.10000000000002
 42
0.414213562373095
 10
35.05200000000002
 20
-50.60000000000002
 10
35.05200000000002
 20
-63.60000000000003
 42
0.4142135623730909
 10
35.55200000000002
 20
-64.10000000000002
 10
48.55200000000002
 20
-64.10000000000004
 42
0.4142135623730992
 10
49.05200000000002
 20
-63.60000000000003
 10
49.05200000000002
 20
-50.60000000000002
 42
0.414213562373095
 10
48.55200000000002
 20
-50.10000000000002
  0
LWPOLYLINE
  5
5F
100
AcDbEntity
  8
0
  6
ByLayer
 62
  256
370
   -1
100
AcDbPolyline
 90
    8
 70
    1
 43
0
 10
16.5
 20
-50.10000000000002
 42
0.4142135623730784
 10
15.99999999999994
 20
-50.60000000000002
 10
15.99999999999998
 20
-63.60000000000003
 42
0.4142135623730701
 10
16.5
 20
-64.10000000000002
 10
29.5
 20
-64.10000000000004
 42
0.4142135623730992
 10
30
 20
-63.60000000000003
 10
30
 20
-50.60000000000002
 42
0.414213562373095
 10
29.5
 20
-50.10000000000002
  0
LWPOLYLINE
  5
60
100
AcDbEntity
  8
0
  6
ByLayer
 62
  256
370
   -1
100
AcDbPolyline
 90
    8
 70
    1
 43
0
 10
16.5
 20
-69.15000000000002
 42
0.4142135623730784
 10
15.99999999999994
 20
-69.65000000000002
 10
15.99999999999997
 20
-82.65000000000002
 42
0.4142135623730784
 10
16.5
 20
-83.15000000000002
 10
29.5
 20
-83.15000000000005
 42
0.4142135623731117
 10
30
 20
-82.65000000000002
 10
30
 20
-69.65000000000002
 42
0.414213562373095
 10
29.5
 20
-69.15000000000002
  0
LWPOLYLINE
  5
61
100
AcDbEntity
  8
0
  6
ByLayer
 62
  256
370
   -1
100
AcDbPolyline
 90
    8
 70
    1
 43
0
 10
35.55200000000002
 20
-69.15000000000002
 42
0.414213562373095
 10
35.05200000000002
 20
-69.65000000000002
 10
35.05200000000002
 20
-82.65000000000002
 42
0.414213562373095
 10
35.55200000000002
 20
-83.15000000000002
 10
48.55200000000002
 20
-83.15000000000005
 42
0.4142135623731117
 10
49.05200000000002
 20
-82.65000000000002
 10
49.05200000000002
 20
-69.65000000000002
 42
0.414213562373095
 10
48.55200000000002
 20
-69.15000000000002
  0
LWPOLYLINE
  5
62
100
AcDbEntity
  8
0
  6
ByLayer
 62
  256
370
   -1
100
AcDbPolyline
 90
    8
 70
    1
 43
0
 10
16.5
 20
-88.20000000000002
 42
0.4142135623730784
 10
15.99999999999994
 20
-88.70000000000002
 10
15.99999999999996
 20
-101.7
 42
0.4142135623730846
 10
16.5
 20
-102.2
 10
29.5
 20
-102.2
 42
0.414213562373095
 10
30
 20
-101.7
 10
30
 20
-88.70000000000002
 42
0.414213562373095
 10
29.5
 20
-88.20000000000002
  0
LWPOLYLINE
  5
63
100
AcDbEntity
  8
0
  6
ByLayer
 62
  256
370
   -1
100
AcDbPolyline
 90
    8
 70
    1
 43
0
 10
35.55200000000002
 20
-88.20000000000002
 42
0.414213562373095
 10
35.05200000000002
 20
-88.70000000000002
 10
35.05200000000001
 20
-101.7
 42
0.4142135623730992
 10
35.55200000000002
 20
-102.2
 10
48.55200000000002
 20
-102.2
 42
0.414213562373095
 10
49.05200000000002
 20
-101.7
 10
49.05200000000002
 20
-88.70000000000002
 42
0.414213562373095
 10
48.55200000000002
 20
-88.20000000000002
  0
LWPOLYLINE
  5
64
100
AcDbEntity
  8
0
  6
ByLayer
 62
  256
370
   -1
100
AcDbPolyline
 90
    8
 70
    1
 43
0
 10
54.60399999999998
 20
-88.20000000000002
 42
0.414213562373095
 10
54.10399999999998
 20
-88.70000000000002
 10
54.10399999999998
 20
-101.7
 42
0.414213562373095
 10
54.60399999999998
 20
-102.2
 10
67.60399999999998
 20
-102.2
 42
0.414213562373095
 10
68.10399999999998
 20
-101.7
 10
68.10399999999998
 20
-88.70000000000002
 42
0.414213562373095
 10
67.60399999999998
 20
-88.20000000000002
  0
LWPOLYLINE
  5
65
100
AcDbEntity
  8
0
  6
ByLayer
 62
  256
370
   -1
100
AcDbPolyline
 90
    8
 70
    1
 43
0
 10
54.60399999999998
 20
-69.15000000000002
 42
0.414213562373095
 10
54.10399999999998
 20
-69.65000000000002
 10
54.10399999999998
 20
-82.65000000000002
 42
0.414213562373095
 10
54.60399999999998
 20
-83.15000000000002
 10
67.60399999999998
 20
-83.15000000000005
 42
0.4142135623731117
 10
68.10399999999998
 20
-82.65000000000002
 10
68.10399999999998
 20
-69.65000000000002
 42
0.414213562373095
 10
67.60399999999998
 20
-69.15000000000002
  0
LWPOLYLINE
  5
66
100
AcDbEntity
  8
0
  6
ByLayer
 62
  256
370
   -1
100
AcDbPolyline
 90
    8
 70
    1
 43
0
 10
73.65600000000003
 20
-69.15000000000003
 42
0.4142135623731034
 10
73.15599999999995
 20
-69.65000000000002
 10
73.15600000000001
 20
-82.65000000000002
 42
0.414213562373095
 10
73.65600000000006
 20
-83.15000000000002
 10
86.65600000000006
 20
-83.15000000000005
 42
0.4142135623731117
 10
87.15600000000006
 20
-82.65000000000002
 10
87.15600000000006
 20
-69.65000000000002
 42
0.414213562373095
 10
86.65600000000006
 20
-69.15000000000002
  0
LWPOLYLINE
  5
67
100
AcDbEntity
  8
0
  6
ByLayer
 62
  256
370
   -1
100
AcDbPolyline
 90
    8
 70
    1
 43
0
 10
92.70799999999997
 20
-69.15000000000002
 42
0.414213562373095
 10
92.20799999999997
 20
-69.65000000000002
 10
92.20799999999997
 20
-82.65000000000002
 42
0.414213562373095
 10
92.70799999999997
 20
-83.15000000000002
 10
105.708
 20
-83.15000000000003
 42
0.4142135623731117
 10
106.2080000000001
 20
-82.65000000000002
 10
106.208
 20
-69.65000000000002
 42
0.4142135623731034
 10
105.708
 20
-69.15000000000002
  0
LWPOLYLINE
  5
68
100
AcDbEntity
  8
0
  6
ByLayer
 62
  256
370
   -1
100
AcDbPolyline
 90
    8
 70
    1
 43
0
 10
111.76
 20
-69.15000000000002
 42
0.414213562373095
 10
111.26
 20
-69.65000000000002
 10
111.26
 20
-82.65000000000002
 42
0.414213562373095
 10
111.76
 20
-83.15000000000002
 10
124.76
 20
-83.15000000000005
 42
0.4142135623731117
 10
125.26
 20
-82.65000000000002
 10
125.26
 20
-69.65000000000002
 42
0.414213562373095
 10
124.76
 20
-69.15000000000002
  0
LINE
  5
69
100
AcDbEntity
  8
0
  6
ByLayer
 62
  256
370
   -1
100
AcDbLine
 10
108.0379043
 20
-92.12321000000001
 11
95.48086849999999
 21
-88.75856240000003
  0
LINE
  5
6A
100
AcDbEntity
  8
0
  6
ByLayer
 62
  256
370
   -1
100
AcDbLine
 10
112.9874992
 20
-98.20553100000002
 11
125.544535
 21
-101.5701786
  0
LINE
  5
6B
100
AcDbEntity
  8
0
  6
ByLayer
 62
  256
370
   -1
100
AcDbLine
 10
94.86849610000002
 20
-89.11211580000001
 11
91.5038485
 21
-101.6691516
  0
LINE
  5
6C
100
AcDbEntity
  8
0
  6
ByLayer
 62
  256
370
   -1
100
AcDbLine
 10
104.4144377
 20
-105.6461716
 11
91.85740190000001
 21
-102.281524
  0
ARC
  5
6D
100
AcDbEntity
  8
0
  6
ByLayer
 62
  256
370
   -1
100
AcDbCircle
 10
91.98681139999997
 20
-101.7985611
 40
0.4999999814666496
100
AcDbArc
 50
165.0000021062837
 51
255.0000021062856
  0
ARC
  5
6E
100
AcDbEntity
  8
0
  6
ByLayer
 62
  256
370
   -1
100
AcDbCircle
 10
95.35145900000003
 20
-89.24152530000002
 40
0.4999999814666931
100
AcDbArc
 50
75.00000210628841
 51
165.0000021062838
  0
ARC
  5
6F
100
AcDbEntity
  8
0
  6
ByLayer
 62
  256
370
   -1
100
AcDbCircle
 10
107.9084948
 20
-92.60617290000003
 40
0.499999981466676
100
AcDbArc
 50
344.9999999999993
 51
75.00000210628295
  0
LINE
  5
70
100
AcDbEntity
  8
0
  6
ByLayer
 62
  256
370
   -1
100
AcDbLine
 10
108.3914577131445
 20
-92.7355824225513
 11
105.0268101
 21
-105.2926182
  0
ARC
  5
71
100
AcDbEntity
  8
0
  6
ByLayer
 62
  256
370
   -1
100
AcDbCircle
 10
104.5438472
 20
-105.1632087
 40
0.4999999814666886
100
AcDbArc
 50
255.0000021062818
 51
345.000002106287
  0
ARC
  5
72
100
AcDbEntity
  8
0
  6
ByLayer
 62
  256
370
   -1
100
AcDbCircle
 10
112.8580897
 20
-98.68849390000004
 40
0.5000000000000074
100
AcDbArc
 50
75.00000210628295
 51
164.9999999999993
  0
LINE
  5
73
100
AcDbEntity
  8
0
  6
ByLayer
 62
  256
370
   -1
100
AcDbLine
 10
112.3751267868554
 20
-98.55908437744877
 11
109.0104792
 21
-111.1161202
  0
ARC
  5
74
100
AcDbEntity
  8
0
  6
ByLayer
 62
  256
370
   -1
100
AcDbCircle
 10
109.4934421
 20
-111.2455297
 40
0.5000000000000029
100
AcDbArc
 50
165.0000021062853
 51
255.0000000000024
  0
LINE
  5
75
100
AcDbEntity
  8
0
  6
ByLayer
 62
  256
370
   -1
100
AcDbLine
 10
109.3640325774488
 20
-111.7284926131446
 11
121.9210684
 21
-115.0931402
  0
ARC
  5
76
100
AcDbEntity
  8
0
  6
ByLayer
 62
  256
370
   -1
100
AcDbCircle
 10
122.0504779
 20
-114.6101773
 40
0.5000000000000074
100
AcDbArc
 50
255.0000021062818
 51
345.0000000000009
  0
LINE
  5
77
100
AcDbEntity
  8
0
  6
ByLayer
 62
  256
370
   -1
100
AcDbLine
 10
125.8980884
 20
-102.182551
 11
122.5334408131446
 21
-114.7395868225513
  0
ARC
  5
78
100
AcDbEntity
  8
0
  6
ByLayer
 62
  256
370
   -1
100
AcDbCircle
 10
125.4151255
 20
-102.0531415
 40
0.4999999814666588
100
AcDbArc
 50
345.0000021062821
 51
75.00000210628252
  0
LINE
  5
79
100
AcDbEntity
  8
0
  6
ByLayer
 62
  256
370
   -1
100
AcDbLine
 10
129.8817575
 20
-108.006053
 11
126.5171099
 21
-120.5630888
  0
ARC
  5
7A
100
AcDbEntity
  8
0
  6
ByLayer
 62
  256
370
   -1
100
AcDbCircle
 10
130.3647204
 20
-108.1354625
 40
0.4999999814666542
100
AcDbArc
 50
74.99999999999883
 51
165.0000021062853
  0
LINE
  5
7B
100
AcDbEntity
  8
0
  6
ByLayer
 62
  256
370
   -1
100
AcDbLine
 10
130.4941299225513
 20
-107.6524995868555
 11
143.0511657
 21
-111.0171472
  0
LINE
  5
7C
100
AcDbEntity
  8
0
  6
ByLayer
 62
  256
370
   -1
100
AcDbLine
 10
143.4047191
 20
-111.6295196
 11
140.0400715000001
 21
-124.1865554
  0
ARC
  5
7D
100
AcDbEntity
  8
0
  6
ByLayer
 62
  256
370
   -1
100
AcDbCircle
 10
142.9217562
 20
-111.5001101
 40
0.4999999814666588
100
AcDbArc
 50
345.0000021062821
 51
75.00000210628252
  0
LINE
  5
7E
100
AcDbEntity
  8
0
  6
ByLayer
 62
  256
370
   -1
100
AcDbLine
 10
126.8706633
 20
-121.1754612
 11
139.4276991
 21
-124.5401088
  0
ARC
  5
7F
100
AcDbEntity
  8
0
  6
ByLayer
 62
  256
370
   -1
100
AcDbCircle
 10
139.5571086
 20
-124.0571459
 40
0.4999999814666714
100
AcDbArc
 50
255.0000021062825
 51
345.0000021062846
  0
ARC
  5
80
100
AcDbEntity
  8
0
  6
ByLayer
 62
  256
370
   -1
100
AcDbCircle
 10
127.0000728
 20
-120.6924983
 40
0.4999999814666588
100
AcDbArc
 50
165.0000021062837
 51
255.0000021062825
  0
LINE
  5
81
100
AcDbEntity
  8
0
  6
ByLayer
 62
  256
370
   -1
100
AcDbLine
 10
125.652674
 20
-129.5847624
 11
139.1756356
 21
-133.208229
  0
LINE
  5
82
100
AcDbEntity
  8
0
  6
ByLayer
 62
  256
370
   -1
100
AcDbLine
 10
133.6439709
 20
-99.76083650000002
 11
147.1669324
 21
-103.3843032
  0
ARC
  5
83
100
AcDbEntity
  8
0
  6
ByLayer
 62
  256
370
   -1
100
AcDbCircle
 10
147.0375229
 20
-103.8672661
 40
0.4999999814666496
100
AcDbArc
 50
344.9999999999993
 51
75.00000210628527
  0
LINE
  5
84
100
AcDbEntity
  8
0
  6
ByLayer
 62
  256
370
   -1
100
AcDbLine
 10
147.5204858131445
 20
-103.9966756225513
 11
145.9675716
 21
-109.7922306
  0
LINE
  5
85
100
AcDbEntity
  8
0
  6
ByLayer
 62
  256
370
   -1
100
AcDbLine
 10
131.8322376
 20
-106.5223173
 11
145.3551991
 21
-110.145784
  0
ARC
  5
86
100
AcDbEntity
  8
0
  6
ByLayer
 62
  256
370
   -1
100
AcDbCircle
 10
145.4846086
 20
-109.662821
 40
0.500000103941171
100
AcDbArc
 50
255.000005072132
 51
344.9999940034378
  0
ARC
  5
87
100
AcDbEntity
  8
0
  6
ByLayer
 62
  256
370
   -1
100
AcDbCircle
 10
131.9616471
 20
-106.0393544000001
 40
0.4999999814666245
100
AcDbArc
 50
164.9999999999993
 51
255.0000021062813
  0
LINE
  5
88
100
AcDbEntity
  8
0
  6
ByLayer
 62
  256
370
   -1
100
AcDbLine
 10
133.0315984
 20
-100.1143899
 11
131.4786841868554
 21
-105.9099448774488
  0
ARC
  5
89
100
AcDbEntity
  8
0
  6
ByLayer
 62
  256
370
   -1
100
AcDbCircle
 10
133.5145614
 20
-100.2437995
 40
0.5000001039411494
100
AcDbArc
 50
75.00000507212927
 51
164.9999940034409
  0
ARC
  5
8A
100
AcDbEntity
  8
0
  6
ByLayer
 62
  256
370
   -1
100
AcDbCircle
 10
125.7820836
 20
-129.1017994
 40
0.5000001039411494
100
AcDbArc
 50
164.9999999999984
 51
254.9999940034409
  0
LINE
  5
8B
100
AcDbEntity
  8
0
  6
ByLayer
 62
  256
370
   -1
100
AcDbLine
 10
126.8520349
 20
-123.176835
 11
125.2991206868555
 21
-128.9723898774488
  0
ARC
  5
8C
100
AcDbEntity
  8
0
  6
ByLayer
 62
  256
370
   -1
100
AcDbCircle
 10
127.3349978
 20
-123.3062445
 40
0.4999999814666588
100
AcDbArc
 50
74.99999999999925
 51
165.0000021062821
  0
LINE
  5
8D
100
AcDbEntity
  8
0
  6
ByLayer
 62
  256
370
   -1
100
AcDbLine
 10
127.4644073225513
 20
-122.8232815868555
 11
140.9873689
 21
-126.4467482
  0
ARC
  5
8E
100
AcDbEntity
  8
0
  6
ByLayer
 62
  256
370
   -1
100
AcDbCircle
 10
140.8579594
 20
-126.9297111
 40
0.4999999814666496
100
AcDbArc
 50
344.9999999999993
 51
75.00000210628527
  0
LINE
  5
8F
100
AcDbEntity
  8
0
  6
ByLayer
 62
  256
370
   -1
100
AcDbLine
 10
141.3409223131446
 20
-127.0591206225513
 11
139.788008
 21
-132.8546756
  0
ARC
  5
90
100
AcDbEntity
  8
0
  6
ByLayer
 62
  256
370
   -1
100
AcDbCircle
 10
139.3050451
 20
-132.7252661
 40
0.499999981466676
100
AcDbArc
 50
255.000002106283
 51
345.0000021062821
  0
LINE
  5
91
100
AcDbEntity
  8
0
  6
ByLayer
 62
  256
370
   -1
100
AcDbLine
 10
131.26
 20
-82.65000000000002
 11
131.26
 21
-89.15000000000002
  0
LINE
  5
92
100
AcDbEntity
  8
0
  6
ByLayer
 62
  256
370
   -1
100
AcDbLine
 10
140.0375358139112
 20
-139.6508315952065
 11
124.9653394393933
 21
-135.6122486975218
  0
LINE
  5
93
100
AcDbEntity
  8
0
  6
ByLayer
 62
  256
370
   -1
100
AcDbLine
 10
112.3856169880191
 20
-128.6823696578409
 11
98.58979194177823
 21
-115.9525235635006
  0
LINE
  5
94
100
AcDbEntity
  8
0
  6
ByLayer
 62
  256
370
   -1
100
AcDbLine
 10
78.15770838334038
 20
-108.0005477386823
 11
14.01170528834115
 21
-108.1882604079498
  0
LINE
  5
95
100
AcDbEntity
  8
0
  6
ByLayer
 62
  256
370
   -1
100
AcDbLine
 10
10
 20
-104.1882775347083
 11
10
 21
-10.00000000000002
  0
LINE
  5
96
100
AcDbEntity
  8
0
  6
ByLayer
 62
  256
370
   -1
100
AcDbLine
 10
14
 20
-6.000000000000004
 11
127.26
 21
-6.000000000000012
  0
LINE
  5
97
100
AcDbEntity
  8
0
  6
ByLayer
 62
  256
370
   -1
100
AcDbLine
 10
131.26
 20
-10.00000000000001
 11
131.26
 21
-89.15000000000002
  0
LINE
  5
98
100
AcDbEntity
  8
0
  6
ByLayer
 62
  256
370
   -1
100
AcDbLine
 10
151.1346611649499
 20
-98.23579579055935
 11
134.2247238586228
 21
-93.70479192836522
  0
LINE
  5
99
100
AcDbEntity
  8
0
  6
ByLayer
 62
  256
370
   -1
100
AcDbLine
 10
131.26
 20
-89.15000000000002
 11
131.26
 21
-89.84108861275014
  0
LINE
  5
9A
100
AcDbEntity
  8
0
  6
ByLayer
 62
  256
370
   -1
100
AcDbLine
 10
153.9630883292609
 20
-103.1347752845992
 11
144.9365153122001
 21
-136.8224044717414
  0
ARC
  5
9B
100
AcDbEntity
  8
0
  6
ByLayer
 62
  256
370
   -1
100
AcDbCircle
 10
78.24549804589856
 20
-138.0004192879945
 40
30.00000000000142
100
AcDbArc
 50
47.30128948679366
 51
90.16766614428025
  0
ARC
  5
9C
100
AcDbEntity
  8
0
  6
ByLayer
 62
  256
370
   -1
100
AcDbCircle
 10
132.7299108838966
 20
-106.6344739333506
 40
29.99999999999719
100
AcDbArc
 50
227.3012894867919
 51
254.999999819225
  0
ARC
  5
9D
100
AcDbEntity
  8
0
  6
ByLayer
 62
  256
370
   -1
100
AcDbCircle
 10
141.0728120065119
 20
-135.7871282933167
 40
3.999999999999963
100
AcDbArc
 50
254.9999998192229
 51
345.0000000294414
  0
ARC
  5
9E
100
AcDbEntity
  8
0
  6
ByLayer
 62
  256
370
   -1
100
AcDbCircle
 10
150.0993850235727
 20
-102.0994991061744
 40
3.999999999999994
100
AcDbArc
 50
345.0000000294407
 51
75.00000057882819
  0
ARC
  5
9F
100
AcDbEntity
  8
0
  6
ByLayer
 62
  256
370
   -1
100
AcDbCircle
 10
135.2599999999999
 20
-89.84108861275014
 40
3.999999999999977
100
AcDbArc
 50
180
 51
255.0000005788285
  0
ARC
  5
A0
100
AcDbEntity
  8
0
  6
ByLayer
 62
  256
370
   -1
100
AcDbCircle
 10
127.26
 20
-9.999999999999998
 40
3.999999999999986
100
AcDbArc
 50
0
 51
90
  0
ARC
  5
A1
100
AcDbEntity
  8
0
  6
ByLayer
 62
  256
370
   -1
100
AcDbCircle
 10
14
 20
-10
 40
3.999999999999986
100
AcDbArc
 50
90
 51
180
  0
ARC
  5
A2
100
AcDbEntity
  8
0
  6
ByLayer
 62
  256
370
   -1
100
AcDbCircle
 10
13.99999999999989
 20
-104.1882775347084
 40
3.999999999999921
100
AcDbArc
 50
180
 51
270.1676661442827
  0
CIRCLE
  5
A3
100
AcDbEntity
  8
0
  6
ByLayer
 62
  256
370
   -1
100
AcDbCircle
 10
32.57797560718782
 20
-85.67298117299306
 40
1.5
  0
CIRCLE
  5
A4
100
AcDbEntity
  8
0
  6
ByLayer
 62
  256
370
   -1
100
AcDbCircle
 10
32.56126338585783
 20
-28.54560370120307
 40
1.5
  0
CIRCLE
  5
A5
100
AcDbEntity
  8
0
  6
ByLayer
 62
  256
370
   -1
100
AcDbCircle
 10
70.6591171939305
 20
-47.55348999754346
 40
1.5
  0
CIRCLE
  5
A6
100
AcDbEntity
  8
0
  6
ByLayer
 62
  256
370
   -1
100
AcDbCircle
 10
70.74665013015591
 20
-85.65904109749847
 40
1.5
  0
CIRCLE
  5
A7
100
AcDbEntity
  8
0
  6
ByLayer
 62
  256
370
   -1
100
AcDbCircle
 10
108.8349196475247
 20
-85.80724331098783
 40
1.5
  0
CIRCLE
  5
A8
100
AcDbEntity
  8
0
  6
ByLayer
 62
  256
370
   -1
100
AcDbCircle
 10
108.8100746381096
 20
-28.5225972640519
 40
1.5
  0
CIRCLE
  5
A9
100
AcDbEntity
  8
0
  6
ByLayer
 62
  256
370
   -1
100
AcDbCircle
 10
125.3933527754292
 20
-113.8376605664101
 40
1.5
  0
LWPOLYLINE
  5
AA
100
AcDbEntity
  8
noname
  6
ByLayer
 62
  256
370
   -1
100
AcDbPolyline
 90
    8
 70
    1
 43
0
 10
199.2886046661365
 20
-12
 42
-0.4142135623730971
 10
199.7886046661365
 20
-12.5
 10
199.7886046661365
 20
-25.49999999999999
 42
-0.414213562373095
 10
199.2886046661365
 20
-25.99999999999999
 10
186.2886046661365
 20
-26.00000000000002
 42
-0.4142135623731075
 10
185.7886046661365
 20
-25.49999999999999
 10
185.7886046661365
 20
-12.5
 42
-0.414213562373095
 10
186.2886046661365
 20
-12.00000000000003
  0
LWPOLYLINE
  5
AB
100
AcDbEntity
  8
noname
  6
ByLayer
 62
  256
370
   -1
100
AcDbPolyline
 90
    8
 70
    1
 43
0
 10
218.3406046661366
 20
-12
 42
-0.4142135623730971
 10
218.8406046661365
 20
-12.5
 10
218.8406046661365
 20
-25.49999999999999
 42
-0.414213562373095
 10
218.3406046661365
 20
-25.99999999999999
 10
205.3406046661365
 20
-26.00000000000003
 42
-0.4142135623731137
 10
204.8406046661364
 20
-25.49999999999999
 10
204.8406046661365
 20
-12.5
 42
-0.4142135623731106
 10
205.3406046661365
 20
-12
  0
LWPOLYLINE
  5
AC
100
AcDbEntity
  8
noname
  6
ByLayer
 62
  256
370
   -1
100
AcDbPolyline
 90
    8
 70
    1
 43
0
 10
237.3926046661365
 20
-11.99999999999997
 42
-0.4142135623731127
 10
237.8926046661365
 20
-12.5
 10
237.8926046661365
 20
-25.50000000000002
 42
-0.414213562373095
 10
237.3926046661364
 20
-25.99999999999999
 10
224.3926046661364
 20
-26.00000000000002
 42
-0.4142135623731075
 10
223.8926046661364
 20
-25.49999999999999
 10
223.8926046661364
 20
-12.5
 42
-0.414213562373095
 10
224.3926046661364
 20
-12.00000000000003
  0
LWPOLYLINE
  5
AD
100
AcDbEntity
  8
noname
  6
ByLayer
 62
  256
370
   -1
100
AcDbPolyline
 90
    8
 70
    1
 43
0
 10
256.4446046661365
 20
-12
 42
-0.4142135623730971
 10
256.9446046661365
 20
-12.5
 10
256.9446046661365
 20
-25.49999999999999
 42
-0.414213562373095
 10
256.4446046661365
 20
-25.99999999999999
 10
243.4446046661365
 20
-26.00000000000002
 42
-0.4142135623731075
 10
242.9446046661365
 20
-25.49999999999999
 10
242.9446046661365
 20
-12.5
 42
-0.414213562373095
 10
243.4446046661365
 20
-12.00000000000003
  0
LWPOLYLINE
  5
AE
100
AcDbEntity
  8
noname
  6
ByLayer
 62
  256
370
   -1
100
AcDbPolyline
 90
    8
 70
    1
 43
0
 10
275.4966046661365
 20
-12
 42
-0.4142135623730971
 10
275.9966046661365
 20
-12.5
 10
275.9966046661365
 20
-25.49999999999999
 42
-0.414213562373095
 10
275.4966046661365
 20
-25.99999999999999
 10
262.4966046661365
 20
-26.00000000000001
 42
-0.4142135623730971
 10
261.9966046661365
 20
-25.49999999999999
 10
261.9966046661365
 20
-12.5
 42
-0.414213562373095
 10
262.4966046661365
 20
-12.00000000000003
  0
LWPOLYLINE
  5
AF
100
AcDbEntity
  8
noname
  6
ByLayer
 62
  256
370
   -1
100
AcDbPolyline
 90
    8
 70
    1
 43
0
 10
294.5486046661365
 20
-12
 42
-0.4142135623730784
 10
295.0486046661366
 20
-12.5
 10
295.0486046661365
 20
-25.50000000000002
 42
-0.4142135623730784
 10
294.5486046661365
 20
-25.99999999999999
 10
281.5486046661365
 20
-26.00000000000001
 42
-0.4142135623730971
 10
281.0486046661365
 20
-25.49999999999999
 10
281.0486046661365
 20
-12.5
 42
-0.414213562373095
 10
281.5486046661365
 20
-12.00000000000003
  0
LWPOLYLINE
  5
B0
100
AcDbEntity
  8
noname
  6
ByLayer
 62
  256
370
   -1
100
AcDbPolyline
 90
    8
 70
    1
 43
0
 10
294.5486046661365
 20
-31.05000000000002
 42
-0.4142135623730805
 10
295.0486046661366
 20
-31.55000000000002
 10
295.0486046661366
 20
-44.55000000000003
 42
-0.4142135623730784
 10
294.5486046661365
 20
-45.05000000000002
 10
281.5486046661365
 20
-45.05000000000002
 42
-0.414213562373095
 10
281.0486046661365
 20
-44.55000000000002
 10
281.0486046661365
 20
-31.55000000000002
 42
-0.4142135623730929
 10
281.5486046661365
 20
-31.05000000000002
  0
LWPOLYLINE
  5
B1
100
AcDbEntity
  8
noname
  6
ByLayer
 62
  256
370
   -1
100
AcDbPolyline
 90
    8
 70
    1
 43
0
 10
275.4966046661365
 20
-31.04999999999999
 42
-0.414213562373095
 10
275.9966046661365
 20
-31.55000000000002
 10
275.9966046661365
 20
-44.55000000000002
 42
-0.414213562373095
 10
275.4966046661365
 20
-45.05000000000002
 10
262.4966046661365
 20
-45.05000000000002
 42
-0.414213562373095
 10
261.9966046661365
 20
-44.55000000000002
 10
261.9966046661365
 20
-31.55
 42
-0.4142135623730867
 10
262.4966046661365
 20
-31.05000000000002
  0
LWPOLYLINE
  5
B2
100
AcDbEntity
  8
noname
  6
ByLayer
 62
  256
370
   -1
100
AcDbPolyline
 90
    8
 70
    1
 43
0
 10
256.4446046661365
 20
-31.04999999999999
 42
-0.414213562373095
 10
256.9446046661365
 20
-31.55000000000002
 10
256.9446046661365
 20
-44.55000000000002
 42
-0.414213562373095
 10
256.4446046661365
 20
-45.05000000000002
 10
243.4446046661365
 20
-45.05000000000002
 42
-0.414213562373095
 10
242.9446046661365
 20
-44.55000000000002
 10
242.9446046661365
 20
-31.55
 42
-0.4142135623730867
 10
243.4446046661365
 20
-31.05000000000002
  0
LWPOLYLINE
  5
B3
100
AcDbEntity
  8
noname
  6
ByLayer
 62
  256
370
   -1
100
AcDbPolyline
 90
    8
 70
    1
 43
0
 10
237.3926046661365
 20
-31.04999999999999
 42
-0.4142135623731096
 10
237.8926046661365
 20
-31.55000000000002
 10
237.8926046661365
 20
-44.55000000000003
 42
-0.414213562373095
 10
237.3926046661364
 20
-45.05000000000002
 10
224.3926046661364
 20
-45.05000000000002
 42
-0.414213562373095
 10
223.8926046661364
 20
-44.55000000000002
 10
223.8926046661364
 20
-31.55
 42
-0.4142135623730867
 10
224.3926046661364
 20
-31.05000000000002
  0
LWPOLYLINE
  5
B4
100
AcDbEntity
  8
noname
  6
ByLayer
 62
  256
370
   -1
100
AcDbPolyline
 90
    8
 70
    1
 43
0
 10
218.3406046661366
 20
-31.04999999999999
 42
-0.414213562373095
 10
218.8406046661365
 20
-31.55000000000002
 10
218.8406046661365
 20
-44.55000000000002
 42
-0.414213562373095
 10
218.3406046661365
 20
-45.05000000000002
 10
205.3406046661365
 20
-45.05000000000001
 42
-0.4142135623731159
 10
204.8406046661364
 20
-44.55000000000002
 10
204.8406046661365
 20
-31.55000000000003
 42
-0.4142135623731034
 10
205.3406046661365
 20
-31.05000000000002
  0
LWPOLYLINE
  5
B5
100
AcDbEntity
  8
noname
  6
ByLayer
 62
  256
370
   -1
100
AcDbPolyline
 90
    8
 70
    1
 43
0
 10
199.2886046661365
 20
-31.04999999999999
 42
-0.414213562373095
 10
199.7886046661365
 20
-31.55000000000002
 10
199.7886046661365
 20
-44.55000000000002
 42
-0.414213562373095
 10
199.2886046661365
 20
-45.05000000000002
 10
186.2886046661365
 20
-45.05000000000002
 42
-0.414213562373095
 10
185.7886046661365
 20
-44.55000000000002
 10
185.7886046661365
 20
-31.55
 42
-0.4142135623730867
 10
186.2886046661365
 20
-31.05000000000002
  0
LWPOLYLINE
  5
B6
100
AcDbEntity
  8
noname
  6
ByLayer
 62
  256
370
   -1
100
AcDbPolyline
 90
    8
 70
    1
 43
0
 10
199.2886046661365
 20
-50.10000000000001
 42
-0.414213562373095
 10
199.7886046661365
 20
-50.60000000000001
 10
199.7886046661365
 20
-63.60000000000003
 42
-0.4142135623730909
 10
199.2886046661365
 20
-64.10000000000002
 10
186.2886046661365
 20
-64.10000000000004
 42
-0.4142135623730992
 10
185.7886046661365
 20
-63.60000000000003
 10
185.7886046661365
 20
-50.60000000000001
 42
-0.414213562373095
 10
186.2886046661365
 20
-50.10000000000002
  0
LWPOLYLINE
  5
B7
100
AcDbEntity
  8
noname
  6
ByLayer
 62
  256
370
   -1
100
AcDbPolyline
 90
    8
 70
    1
 43
0
 10
218.3406046661365
 20
-50.10000000000001
 42
-0.414213562373095
 10
218.8406046661365
 20
-50.60000000000001
 10
218.8406046661365
 20
-63.60000000000003
 42
-0.4142135623730909
 10
218.3406046661365
 20
-64.10000000000002
 10
205.3406046661365
 20
-64.10000000000004
 42
-0.4142135623731075
 10
204.8406046661364
 20
-63.60000000000003
 10
204.8406046661365
 20
-50.60000000000001
 42
-0.4142135623730992
 10
205.3406046661365
 20
-50.10000000000002
  0
LWPOLYLINE
  5
B8
100
AcDbEntity
  8
noname
  6
ByLayer
 62
  256
370
   -1
100
AcDbPolyline
 90
    8
 70
    1
 43
0
 10
237.3926046661365
 20
-50.10000000000001
 42
-0.4142135623731075
 10
237.8926046661365
 20
-50.60000000000001
 10
237.8926046661365
 20
-63.60000000000003
 42
-0.4142135623730909
 10
237.3926046661364
 20
-64.10000000000002
 10
224.3926046661364
 20
-64.10000000000004
 42
-0.4142135623730992
 10
223.8926046661364
 20
-63.60000000000003
 10
223.8926046661364
 20
-50.60000000000001
 42
-0.414213562373095
 10
224.3926046661364
 20
-50.10000000000002
  0
LWPOLYLINE
  5
B9
100
AcDbEntity
  8
noname
  6
ByLayer
 62
  256
370
   -1
100
AcDbPolyline
 90
    8
 70
    1
 43
0
 10
256.4446046661365
 20
-50.10000000000001
 42
-0.414213562373095
 10
256.9446046661365
 20
-50.60000000000001
 10
256.9446046661365
 20
-63.60000000000003
 42
-0.4142135623730909
 10
256.4446046661365
 20
-64.10000000000002
 10
243.4446046661365
 20
-64.10000000000004
 42
-0.4142135623730992
 10
242.9446046661365
 20
-63.60000000000003
 10
242.9446046661365
 20
-50.60000000000001
 42
-0.414213562373095
 10
243.4446046661365
 20
-50.10000000000002
  0
LWPOLYLINE
  5
BA
100
AcDbEntity
  8
noname
  6
ByLayer
 62
  256
370
   -1
100
AcDbPolyline
 90
    8
 70
    1
 43
0
 10
275.4966046661365
 20
-50.10000000000001
 42
-0.414213562373095
 10
275.9966046661365
 20
-50.60000000000001
 10
275.9966046661365
 20
-63.60000000000003
 42
-0.4142135623730909
 10
275.4966046661365
 20
-64.10000000000002
 10
262.4966046661365
 20
-64.10000000000004
 42
-0.4142135623730992
 10
261.9966046661365
 20
-63.60000000000003
 10
261.9966046661365
 20
-50.60000000000001
 42
-0.414213562373095
 10
262.4966046661365
 20
-50.10000000000002
  0
LWPOLYLINE
  5
BB
100
AcDbEntity
  8
noname
  6
ByLayer
 62
  256
370
   -1
100
AcDbPolyline
 90
    8
 70
    1
 43
0
 10
294.5486046661365
 20
-50.10000000000002
 42
-0.4142135623730784
 10
295.0486046661366
 20
-50.60000000000001
 10
295.0486046661365
 20
-63.60000000000003
 42
-0.4142135623730701
 10
294.5486046661365
 20
-64.10000000000002
 10
281.5486046661365
 20
-64.10000000000004
 42
-0.4142135623730992
 10
281.0486046661365
 20
-63.60000000000003
 10
281.0486046661365
 20
-50.60000000000001
 42
-0.414213562373095
 10
281.5486046661365
 20
-50.10000000000002
  0
LWPOLYLINE
  5
BC
100
AcDbEntity
  8
noname
  6
ByLayer
 62
  256
370
   -1
100
AcDbPolyline
 90
    8
 70
    1
 43
0
 10
294.5486046661365
 20
-69.15000000000002
 42
-0.4142135623730784
 10
295.0486046661366
 20
-69.65000000000001
 10
295.0486046661366
 20
-82.65000000000002
 42
-0.4142135623730784
 10
294.5486046661365
 20
-83.15000000000001
 10
281.5486046661365
 20
-83.15000000000005
 42
-0.4142135623731117
 10
281.0486046661365
 20
-82.65000000000001
 10
281.0486046661365
 20
-69.65000000000001
 42
-0.414213562373095
 10
281.5486046661365
 20
-69.15000000000002
  0
LWPOLYLINE
  5
BD
100
AcDbEntity
  8
noname
  6
ByLayer
 62
  256
370
   -1
100
AcDbPolyline
 90
    8
 70
    1
 43
0
 10
275.4966046661365
 20
-69.15000000000001
 42
-0.414213562373095
 10
275.9966046661365
 20
-69.65000000000001
 10
275.9966046661365
 20
-82.65000000000001
 42
-0.414213562373095
 10
275.4966046661365
 20
-83.15000000000001
 10
262.4966046661365
 20
-83.15000000000005
 42
-0.4142135623731117
 10
261.9966046661365
 20
-82.65000000000001
 10
261.9966046661365
 20
-69.65000000000001
 42
-0.414213562373095
 10
262.4966046661365
 20
-69.15000000000002
  0
LWPOLYLINE
  5
BE
100
AcDbEntity
  8
noname
  6
ByLayer
 62
  256
370
   -1
100
AcDbPolyline
 90
    8
 70
    1
 43
0
 10
294.5486046661365
 20
-88.20000000000002
 42
-0.4142135623730784
 10
295.0486046661366
 20
-88.70000000000002
 10
295.0486046661366
 20
-101.7
 42
-0.4142135623730846
 10
294.5486046661365
 20
-102.2
 10
281.5486046661365
 20
-102.2
 42
-0.414213562373095
 10
281.0486046661365
 20
-101.7
 10
281.0486046661365
 20
-88.70000000000002
 42
-0.414213562373095
 10
281.5486046661365
 20
-88.20000000000002
  0
LWPOLYLINE
  5
BF
100
AcDbEntity
  8
noname
  6
ByLayer
 62
  256
370
   -1
100
AcDbPolyline
 90
    8
 70
    1
 43
0
 10
275.4966046661365
 20
-88.20000000000002
 42
-0.414213562373095
 10
275.9966046661365
 20
-88.70000000000002
 10
275.9966046661365
 20
-101.7
 42
-0.4142135623730992
 10
275.4966046661365
 20
-102.2
 10
262.4966046661365
 20
-102.2
 42
-0.414213562373095
 10
261.9966046661365
 20
-101.7
 10
261.9966046661365
 20
-88.70000000000002
 42
-0.414213562373095
 10
262.4966046661365
 20
-88.20000000000002
  0
LWPOLYLINE
  5
C0
100
AcDbEntity
  8
noname
  6
ByLayer
 62
  256
370
   -1
100
AcDbPolyline
 90
    8
 70
    1
 43
0
 10
256.4446046661365
 20
-88.20000000000002
 42
-0.414213562373095
 10
256.9446046661365
 20
-88.70000000000002
 10
256.9446046661365
 20
-101.7
 42
-0.414213562373095
 10
256.4446046661365
 20
-102.2
 10
243.4446046661365
 20
-102.2
 42
-0.414213562373095
 10
242.9446046661365
 20
-101.7
 10
242.9446046661365
 20
-88.70000000000002
 42
-0.414213562373095
 10
243.4446046661365
 20
-88.20000000000002
  0
LWPOLYLINE
  5
C1
100
AcDbEntity
  8
noname
  6
ByLayer
 62
  256
370
   -1
100
AcDbPolyline
 90
    8
 70
    1
 43
0
 10
256.4446046661365
 20
-69.15000000000001
 42
-0.414213562373095
 10
256.9446046661365
 20
-69.65000000000001
 10
256.9446046661365
 20
-82.65000000000001
 42
-0.414213562373095
 10
256.4446046661365
 20
-83.15000000000001
 10
243.4446046661365
 20
-83.15000000000005
 42
-0.4142135623731117
 10
242.9446046661365
 20
-82.65000000000001
 10
242.9446046661365
 20
-69.65000000000001
 42
-0.414213562373095
 10
243.4446046661365
 20
-69.15000000000002
  0
LWPOLYLINE
  5
C2
100
AcDbEntity
  8
noname
  6
ByLayer
 62
  256
370
   -1
100
AcDbPolyline
 90
    8
 70
    1
 43
0
 10
237.3926046661365
 20
-69.15000000000003
 42
-0.4142135623731034
 10
237.8926046661365
 20
-69.65000000000001
 10
237.8926046661365
 20
-82.65000000000002
 42
-0.414213562373095
 10
237.3926046661364
 20
-83.15000000000001
 10
224.3926046661364
 20
-83.15000000000005
 42
-0.4142135623731117
 10
223.8926046661364
 20
-82.65000000000001
 10
223.8926046661364
 20
-69.65000000000001
 42
-0.414213562373095
 10
224.3926046661364
 20
-69.15000000000002
  0
LWPOLYLINE
  5
C3
100
AcDbEntity
  8
noname
  6
ByLayer
 62
  256
370
   -1
100
AcDbPolyline
 90
    8
 70
    1
 43
0
 10
218.3406046661365
 20
-69.15000000000001
 42
-0.414213562373095
 10
218.8406046661365
 20
-69.65000000000001
 10
218.8406046661365
 20
-82.65000000000001
 42
-0.414213562373095
 10
218.3406046661365
 20
-83.15000000000001
 10
205.3406046661365
 20
-83.15000000000003
 42
-0.4142135623731117
 10
204.8406046661364
 20
-82.65000000000001
 10
204.8406046661365
 20
-69.65000000000002
 42
-0.4142135623731034
 10
205.3406046661365
 20
-69.15000000000002
  0
LWPOLYLINE
  5
C4
100
AcDbEntity
  8
noname
  6
ByLayer
 62
  256
370
   -1
100
AcDbPolyline
 90
    8
 70
    1
 43
0
 10
199.2886046661365
 20
-69.15000000000001
 42
-0.414213562373095
 10
199.7886046661365
 20
-69.65000000000001
 10
199.7886046661365
 20
-82.65000000000001
 42
-0.414213562373095
 10
199.2886046661365
 20
-83.15000000000001
 10
186.2886046661365
 20
-83.15000000000005
 42
-0.4142135623731117
 10
185.7886046661365
 20
-82.65000000000001
 10
185.7886046661365
 20
-69.65000000000001
 42
-0.414213562373095
 10
186.2886046661365
 20
-69.15000000000002
  0
LINE
  5
C5
100
AcDbEntity
  8
noname
  6
ByLayer
 62
  256
370
   -1
100
AcDbLine
 10
203.0107003661365
 20
-92.12321000000001
 11
215.5677361661365
 21
-88.75856240000003
  0
LINE
  5
C6
100
AcDbEntity
  8
noname
  6
ByLayer
 62
  256
370
   -1
100
AcDbLine
 10
198.0611054661365
 20
-98.20553100000002
 11
185.5040696661365
 21
-101.5701786
  0
LINE
  5
C7
100
AcDbEntity
  8
noname
  6
ByLayer
 62
  256
370
   -1
100
AcDbLine
 10
216.1801085661365
 20
-89.11211580000001
 11
219.5447561661365
 21
-101.6691516
  0
LINE
  5
C8
100
AcDbEntity
  8
noname
  6
ByLayer
 62
  256
370
   -1
100
AcDbLine
 10
206.6341669661365
 20
-105.6461716
 11
219.1912027661365
 21
-102.281524
  0
ARC
  5
C9
100
AcDbEntity
  8
noname
  6
ByLayer
 62
  256
370
   -1
100
AcDbCircle
 10
219.0617932661365
 20
-101.7985611
 40
0.4999999814666496
100
AcDbArc
 50
284.9999978937144
 51
14.99999789371632
  0
ARC
  5
CA
100
AcDbEntity
  8
noname
  6
ByLayer
 62
  256
370
   -1
100
AcDbCircle
 10
215.6971456661365
 20
-89.24152530000002
 40
0.4999999814666931
100
AcDbArc
 50
14.99999789371619
 51
104.9999978937116
  0
ARC
  5
CB
100
AcDbEntity
  8
noname
  6
ByLayer
 62
  256
370
   -1
100
AcDbCircle
 10
203.1401098661365
 20
-92.60617290000003
 40
0.499999981466676
100
AcDbArc
 50
104.9999978937171
 51
195.0000000000007
  0
LINE
  5
CC
100
AcDbEntity
  8
noname
  6
ByLayer
 62
  256
370
   -1
100
AcDbLine
 10
202.657146952992
 20
-92.7355824225513
 11
206.0217945661365
 21
-105.2926182
  0
ARC
  5
CD
100
AcDbEntity
  8
noname
  6
ByLayer
 62
  256
370
   -1
100
AcDbCircle
 10
206.5047574661365
 20
-105.1632087
 40
0.4999999814666886
100
AcDbArc
 50
194.999997893713
 51
284.9999978937182
  0
ARC
  5
CE
100
AcDbEntity
  8
noname
  6
ByLayer
 62
  256
370
   -1
100
AcDbCircle
 10
198.1905149661365
 20
-98.68849390000004
 40
0.5000000000000074
100
AcDbArc
 50
15.00000000000072
 51
104.9999978937171
  0
LINE
  5
CF
100
AcDbEntity
  8
noname
  6
ByLayer
 62
  256
370
   -1
100
AcDbLine
 10
198.6734778792811
 20
-98.55908437744877
 11
202.0381254661365
 21
-111.1161202
  0
ARC
  5
D0
100
AcDbEntity
  8
noname
  6
ByLayer
 62
  256
370
   -1
100
AcDbCircle
 10
201.5551625661365
 20
-111.2455297
 40
0.5000000000000029
100
AcDbArc
 50
284.9999999999976
 51
14.99999789371469
  0
LINE
  5
D1
100
AcDbEntity
  8
noname
  6
ByLayer
 62
  256
370
   -1
100
AcDbLine
 10
201.6845720886877
 20
-111.7284926131446
 11
189.1275362661365
 21
-115.0931402
  0
ARC
  5
D2
100
AcDbEntity
  8
noname
  6
ByLayer
 62
  256
370
   -1
100
AcDbCircle
 10
188.9981267661365
 20
-114.6101773
 40
0.5000000000000074
100
AcDbArc
 50
194.9999999999991
 51
284.9999978937182
  0
LINE
  5
D3
100
AcDbEntity
  8
noname
  6
ByLayer
 62
  256
370
   -1
100
AcDbLine
 10
185.1505162661365
 20
-102.182551
 11
188.5151638529919
 21
-114.7395868225513
  0
ARC
  5
D4
100
AcDbEntity
  8
noname
  6
ByLayer
 62
  256
370
   -1
100
AcDbCircle
 10
185.6334791661365
 20
-102.0531415
 40
0.4999999814666588
100
AcDbArc
 50
104.9999978937175
 51
194.9999978937179
  0
LINE
  5
D5
100
AcDbEntity
  8
noname
  6
ByLayer
 62
  256
370
   -1
100
AcDbLine
 10
181.1668471661365
 20
-108.006053
 11
184.5314947661365
 21
-120.5630888
  0
ARC
  5
D6
100
AcDbEntity
  8
noname
  6
ByLayer
 62
  256
370
   -1
100
AcDbCircle
 10
180.6838842661365
 20
-108.1354625
 40
0.4999999814666542
100
AcDbArc
 50
14.99999789371469
 51
105.0000000000012
  0
LINE
  5
D7
100
AcDbEntity
  8
noname
  6
ByLayer
 62
  256
370
   -1
100
AcDbLine
 10
180.5544747435852
 20
-107.6524995868555
 11
167.9974389661365
 21
-111.0171472
  0
LINE
  5
D8
100
AcDbEntity
  8
noname
  6
ByLayer
 62
  256
370
   -1
100
AcDbLine
 10
167.6438855661365
 20
-111.6295196
 11
171.0085331661364
 21
-124.1865554
  0
ARC
  5
D9
100
AcDbEntity
  8
noname
  6
ByLayer
 62
  256
370
   -1
100
AcDbCircle
 10
168.1268484661365
 20
-111.5001101
 40
0.4999999814666588
100
AcDbArc
 50
104.9999978937175
 51
194.9999978937179
  0
LINE
  5
DA
100
AcDbEntity
  8
noname
  6
ByLayer
 62
  256
370
   -1
100
AcDbLine
 10
184.1779413661365
 20
-121.1754612
 11
171.6209055661365
 21
-124.5401088
  0
ARC
  5
DB
100
AcDbEntity
  8
noname
  6
ByLayer
 62
  256
370
   -1
100
AcDbCircle
 10
171.4914960661365
 20
-124.0571459
 40
0.4999999814666714
100
AcDbArc
 50
194.9999978937153
 51
284.9999978937175
  0
ARC
  5
DC
100
AcDbEntity
  8
noname
  6
ByLayer
 62
  256
370
   -1
100
AcDbCircle
 10
184.0485318661365
 20
-120.6924983
 40
0.4999999814666588
100
AcDbArc
 50
284.9999978937175
 51
14.99999789371632
  0
LINE
  5
DD
100
AcDbEntity
  8
noname
  6
ByLayer
 62
  256
370
   -1
100
AcDbLine
 10
185.3959306661365
 20
-129.5847624
 11
171.8729690661365
 21
-133.208229
  0
LINE
  5
DE
100
AcDbEntity
  8
noname
  6
ByLayer
 62
  256
370
   -1
100
AcDbLine
 10
177.4046337661365
 20
-99.76083650000002
 11
163.8816722661365
 21
-103.3843032
  0
ARC
  5
DF
100
AcDbEntity
  8
noname
  6
ByLayer
 62
  256
370
   -1
100
AcDbCircle
 10
164.0110817661365
 20
-103.8672661
 40
0.4999999814666496
100
AcDbArc
 50
104.9999978937147
 51
195.0000000000007
  0
LINE
  5
E0
100
AcDbEntity
  8
noname
  6
ByLayer
 62
  256
370
   -1
100
AcDbLine
 10
163.528118852992
 20
-103.9966756225513
 11
165.0810330661365
 21
-109.7922306
  0
LINE
  5
E1
100
AcDbEntity
  8
noname
  6
ByLayer
 62
  256
370
   -1
100
AcDbLine
 10
179.2163670661365
 20
-106.5223173
 11
165.6934055661365
 21
-110.145784
  0
ARC
  5
E2
100
AcDbEntity
  8
noname
  6
ByLayer
 62
  256
370
   -1
100
AcDbCircle
 10
165.5639960661365
 20
-109.662821
 40
0.500000103941171
100
AcDbArc
 50
195.0000059965622
 51
284.999994927868
  0
ARC
  5
E3
100
AcDbEntity
  8
noname
  6
ByLayer
 62
  256
370
   -1
100
AcDbCircle
 10
179.0869575661365
 20
-106.0393544000001
 40
0.4999999814666245
100
AcDbArc
 50
284.9999978937187
 51
15.00000000000072
  0
LINE
  5
E4
100
AcDbEntity
  8
noname
  6
ByLayer
 62
  256
370
   -1
100
AcDbLine
 10
178.0170062661365
 20
-100.1143899
 11
179.5699204792811
 21
-105.9099448774488
  0
ARC
  5
E5
100
AcDbEntity
  8
noname
  6
ByLayer
 62
  256
370
   -1
100
AcDbCircle
 10
177.5340432661365
 20
-100.2437995
 40
0.5000001039411494
100
AcDbArc
 50
15.00000599655911
 51
104.9999949278707
  0
ARC
  5
E6
100
AcDbEntity
  8
noname
  6
ByLayer
 62
  256
370
   -1
100
AcDbCircle
 10
185.2665210661365
 20
-129.1017994
 40
0.5000001039411494
100
AcDbArc
 50
285.0000059965591
 51
15.00000000000159
  0
LINE
  5
E7
100
AcDbEntity
  8
noname
  6
ByLayer
 62
  256
370
   -1
100
AcDbLine
 10
184.1965697661365
 20
-123.176835
 11
185.749483979281
 21
-128.9723898774488
  0
ARC
  5
E8
100
AcDbEntity
  8
noname
  6
ByLayer
 62
  256
370
   -1
100
AcDbCircle
 10
183.7136068661365
 20
-123.3062445
 40
0.4999999814666588
100
AcDbArc
 50
14.9999978937179
 51
105.0000000000008
  0
LINE
  5
E9
100
AcDbEntity
  8
noname
  6
ByLayer
 62
  256
370
   -1
100
AcDbLine
 10
183.5841973435852
 20
-122.8232815868555
 11
170.0612357661365
 21
-126.4467482
  0
ARC
  5
EA
100
AcDbEntity
  8
noname
  6
ByLayer
 62
  256
370
   -1
100
AcDbCircle
 10
170.1906452661365
 20
-126.9297111
 40
0.4999999814666496
100
AcDbArc
 50
104.9999978937147
 51
195.0000000000007
  0
LINE
  5
EB
100
AcDbEntity
  8
noname
  6
ByLayer
 62
  256
370
   -1
100
AcDbLine
 10
169.7076823529919
 20
-127.0591206225513
 11
171.2605966661365
 21
-132.8546756
  0
ARC
  5
EC
100
AcDbEntity
  8
noname
  6
ByLayer
 62
  256
370
   -1
100
AcDbCircle
 10
171.7435595661365
 20
-132.7252661
 40
0.499999981466676
100
AcDbArc
 50
194.9999978937179
 51
284.999997893717
  0
LINE
  5
ED
100
AcDbEntity
  8
noname
  6
ByLayer
 62
  256
370
   -1
100
AcDbLine
 10
179.7886046661365
 20
-82.65000000000001
 11
179.7886046661365
 21
-89.15000000000002
  0
LINE
  5
EE
100
AcDbEntity
  8
noname
  6
ByLayer
 62
  256
370
   -1
100
AcDbLine
 10
171.0110688522253
 20
-139.6508315952065
 11
186.0832652267432
 21
-135.6122486975218
  0
LINE
  5
EF
100
AcDbEntity
  8
noname
  6
ByLayer
 62
  256
370
   -1
100
AcDbLine
 10
198.6629876781174
 20
-128.6823696578409
 11
212.4588127243583
 21
-115.9525235635006
  0
LINE
  5
F0
100
AcDbEntity
  8
noname
  6
ByLayer
 62
  256
370
   -1
100
AcDbLine
 10
232.8908962827961
 20
-108.0005477386823
 11
297.0368993777954
 21
-108.1882604079498
  0
LINE
  5
F1
100
AcDbEntity
  8
noname
  6
ByLayer
 62
  256
370
   -1
100
AcDbLine
 10
301.0486046661365
 20
-104.1882775347083
 11
301.0486046661365
 21
-10.00000000000001
  0
LINE
  5
F2
100
AcDbEntity
  8
noname
  6
ByLayer
 62
  256
370
   -1
100
AcDbLine
 10
297.0486046661365
 20
-5.999999999999996
 11
183.7886046661365
 21
-6.000000000000016
  0
LINE
  5
F3
100
AcDbEntity
  8
noname
  6
ByLayer
 62
  256
370
   -1
100
AcDbLine
 10
179.7886046661365
 20
-10.00000000000002
 11
179.7886046661365
 21
-89.15000000000002
  0
LINE
  5
F4
100
AcDbEntity
  8
noname
  6
ByLayer
 62
  256
370
   -1
100
AcDbLine
 10
159.9139435011866
 20
-98.23579579055935
 11
176.8238808075137
 21
-93.70479192836522
  0
LINE
  5
F5
100
AcDbEntity
  8
noname
  6
ByLayer
 62
  256
370
   -1
100
AcDbLine
 10
179.7886046661365
 20
-89.15000000000002
 11
179.7886046661365
 21
-89.84108861275014
  0
LINE
  5
F6
100
AcDbEntity
  8
noname
  6
ByLayer
 62
  256
370
   -1
100
AcDbLine
 10
157.0855163368756
 20
-103.1347752845992
 11
166.1120893539364
 21
-136.8224044717414
  0
ARC
  5
F7
100
AcDbEntity
  8
noname
  6
ByLayer
 62
  256
370
   -1
100
AcDbCircle
 10
232.8031066202379
 20
-138.0004192879945
 40
30.00000000000142
100
AcDbArc
 50
89.83233385571975
 51
132.6987105132064
  0
ARC
  5
F8
100
AcDbEntity
  8
noname
  6
ByLayer
 62
  256
370
   -1
100
AcDbCircle
 10
178.3186937822399
 20
-106.6344739333506
 40
29.99999999999719
100
AcDbArc
 50
285.000000180775
 51
312.6987105132081
  0
ARC
  5
F9
100
AcDbEntity
  8
noname
  6
ByLayer
 62
  256
370
   -1
100
AcDbCircle
 10
169.9757926596246
 20
-135.7871282933167
 40
3.999999999999963
100
AcDbArc
 50
194.9999999705586
 51
285.0000001807771
  0
ARC
  5
FA
100
AcDbEntity
  8
noname
  6
ByLayer
 62
  256
370
   -1
100
AcDbCircle
 10
160.9492196425638
 20
-102.0994991061744
 40
3.999999999999994
100
AcDbArc
 50
104.9999994211718
 51
194.9999999705593
  0
ARC
  5
FB
100
AcDbEntity
  8
noname
  6
ByLayer
 62
  256
370
   -1
100
AcDbCircle
 10
175.7886046661366
 20
-89.84108861275014
 40
3.999999999999977
100
AcDbArc
 50
284.9999994211715
 51
0
  0
ARC
  5
FC
100
AcDbEntity
  8
noname
  6
ByLayer
 62
  256
370
   -1
100
AcDbCircle
 10
183.7886046661365
 20
-10
 40
3.999999999999986
100
AcDbArc
 50
90
 51
180
  0
ARC
  5
FD
100
AcDbEntity
  8
noname
  6
ByLayer
 62
  256
370
   -1
100
AcDbCircle
 10
297.0486046661365
 20
-10
 40
3.999999999999986
100
AcDbArc
 50
0
 51
90
  0
ARC
  5
FE
100
AcDbEntity
  8
noname
  6
ByLayer
 62
  256
370
   -1
100
AcDbCircle
 10
297.0486046661366
 20
-104.1882775347084
 40
3.999999999999921
100
AcDbArc
 50
269.8323338557173
 51
0
  0
CIRCLE
  5
FF
100
AcDbEntity
  8
noname
  6
ByLayer
 62
  256
370
   -1
100
AcDbCircle
 10
278.4706290589487
 20
-85.67298117299306
 40
1.5
  0
CIRCLE
  5
100
100
AcDbEntity
  8
noname
  6
ByLayer
 62
  256
370
   -1
100
AcDbCircle
 10
278.4873412802787
 20
-28.54560370120306
 40
1.5
  0
CIRCLE
  5
101
100
AcDbEntity
  8
noname
  6
ByLayer
 62
  256
370
   -1
100
AcDbCircle
 10
240.389487472206
 20
-47.55348999754346
 40
1.5
  0
CIRCLE
  5
102
100
AcDbEntity
  8
noname
  6
ByLayer
 62
  256
370
   -1
100
AcDbCircle
 10
240.3019545359806
 20
-85.65904109749847
 40
1.5
  0
CIRCLE
  5
103
100
AcDbEntity
  8
noname
  6
ByLayer
 62
  256
370
   -1
100
AcDbCircle
 10
202.2136850186118
 20
-85.80724331098783
 40
1.5
  0
CIRCLE
  5
104
100
AcDbEntity
  8
noname
  6
ByLayer
 62
  256
370
   -1
100
AcDbCircle
 10
202.2385300280269
 20
-28.52259726405187
 40
1.5
  0
CIRCLE
  5
105
100
AcDbEntity
  8
noname
  6
ByLayer
 62
  256
370
   -1
100
AcDbCircle
 10
185.6552518907073
 20
-113.8376605664101
 40
1.5
  0
ENDSEC
  0
SECTION
  2
OBJECTS
  0
DICTIONARY
  5
C
330
0
100
AcDbDictionary
281
    1
  3
ACAD_GROUP
350
D
  0
DICTIONARY
  5
D
330
C
100
AcDbDictionary
281
    1
  0
ENDSEC
  0
EOF
