0
SECTION
2
HEADER
9
$INSUNITS
70
4
9
$ACADVER
1
AC1014
9
$HANDSEED
5
FFFF
0
ENDSEC
0
SECTION
2
TABLES
0
TABLE
2
VPORT
5
8
100
AcDbSymbolTable
0
ENDTAB
0
TABLE
2
LTYPE
5
5
100
AcDbSymbolTable
0
LTYPE
5
14
100
AcDbSymbolTableRecord
100
AcDbLinetypeTableRecord
2
BYBLOCK
70
0
0
LTYPE
5
15
100
AcDbSymbolTableRecord
100
AcDbLinetypeTableRecord
2
BYLAYER
70
0
0
ENDTAB
0
TABLE
2
LAYER
5
2
100
AcDbSymbolTable
70
2
0
LAYER
5
50
100
AcDbSymbolTableRecord
100
AcDbLayerTableRecord
2
0
70
0
6
CONTINUOUS
0
ENDTAB
0
TABLE
2
STYLE
5
3
100
AcDbSymbolTable
70
1
0
STYLE
5
11
100
AcDbSymbolTableRecord
100
AcDbTextStyleTableRecord
2
STANDARD
70
0
0
ENDTAB
0
TABLE
2
VIEW
5
6
100
AcDbSymbolTable
70
0
0
ENDTAB
0
TABLE
2
UCS
5
7
100
AcDbSymbolTable
70
0
0
ENDTAB
0
TABLE
2
APPID
5
9
100
AcDbSymbolTable
70
2
0
APPID
5
12
100
AcDbSymbolTableRecord
100
AcDbRegAppTableRecord
2
ACAD
70
0
0
ENDTAB
0
TABLE
2
DIMSTYLE
5
A
100
AcDbSymbolTable
70
1
0
ENDTAB
0
TABLE
2
BLOCK_RECORD
5
1
100
AcDbSymbolTable
70
1
0
BLOCK_RECORD
5
1F
100
AcDbSymbolTableRecord
100
AcDbBlockTableRecord
2
*MODEL_SPACE
0
BLOCK_RECORD
5
1B
100
AcDbSymbolTableRecord
100
AcDbBlockTableRecord
2
*PAPER_SPACE
0
ENDTAB
0
ENDSEC
0
SECTION
2
BLOCKS
0
BLOCK
5
20
100
AcDbEntity
100
AcDbBlockBegin
2
*MODEL_SPACE
0
ENDBLK
5
21
100
AcDbEntity
100
AcDbBlockEnd
0
BLOCK
5
1C
100
AcDbEntity
100
AcDbBlockBegin
2
*PAPER_SPACE
0
ENDBLK
5
1D
100
AcDbEntity
100
AcDbBlockEnd
0
ENDSEC
0
SECTION
2
ENTITIES
0
LWPOLYLINE
5
100
100
AcDbEntity
8
0
100
AcDbPolyline
90
8
70
1
43
0.0
10
38.625
20
-83.725000000000009
10
51.625000000000007
20
-83.725000000000009
42
0.41421356237309503
10
52.125
20
-83.224999999999994
10
52.125
20
-70.224999999999994
42
0.41421356237309503
10
51.625000000000007
20
-69.724999999999994
10
38.625
20
-69.724999999999994
42
0.41421356237309503
10
38.125
20
-70.224999999999994
10
38.125000000000007
20
-83.224999999999994
42
0.41421356237309503
0
LINE
5
101
100
AcDbEntity
8
0
100
AcDbLine
10
110.01840790000003
20
-87.337215299999997
30
0
11
106.65376029999999
21
-99.894251099999991
31
0
0
ARC
5
102
100
AcDbEntity
8
0
100
AcDbCircle
10
90.550817000000009
20
-91.568499700000018
30
0
40
0.50000000000000744
210
0
220
0
230
1
100
AcDbArc
50
164.99999999999929
51
254.99999999999883
0
LWPOLYLINE
5
103
100
AcDbEntity
8
0
100
AcDbPolyline
90
8
70
1
43
0.0
10
20.575000000000003
20
-69.724999999999994
42
0.41421356237309503
10
20.075000000000003
20
-70.224999999999994
10
20.075000000000003
20
-83.224999999999994
42
0.41421356237309503
10
20.575000000000003
20
-83.725000000000009
10
33.575000000000003
20
-83.725000000000009
42
0.41421356237309503
10
34.075000000000003
20
-83.224999999999994
10
34.075000000000003
20
-70.224999999999994
42
0.41421356237309503
10
33.575000000000003
20
-69.724999999999994
0
LINE
5
104
100
AcDbEntity
8
0
100
AcDbLine
10
73.835501400000012
20
-83.596301700000012
30
0
11
86.392537199999992
21
-86.960949299999996
31
0
0
LINE
5
105
100
AcDbEntity
8
0
100
AcDbLine
10
123.18781609999999
20
-90.348309499999999
30
0
11
110.63078030000001
21
-86.983661900000001
31
0
0
LINE
5
106
100
AcDbEntity
8
0
100
AcDbLine
10
77.458967999999999
20
-70.073340099999996
30
0
11
90.016003799999993
21
-73.437987699999994
31
0
0
LINE
5
107
100
AcDbEntity
8
0
100
AcDbLine
10
119.56434950000002
20
-103.8712711
30
0
11
107.00731370000001
21
-100.50662350000002
31
0
0
LINE
5
108
100
AcDbEntity
8
0
100
AcDbLine
10
90.369557200000003
20
-74.050360100000006
30
0
11
87.004909599999991
21
-86.6073959
31
0
0
ARC
5
109
100
AcDbEntity
8
0
100
AcDbCircle
10
93.915464599999993
20
-79.01146390000001
30
0
40
0.49999999999999883
210
0
220
-0
230
1
100
AcDbArc
50
75.000000000000412
51
165.00000000000085
0
ARC
5
110
100
AcDbEntity
8
0
100
AcDbCircle
10
73.964910900000007
20
-83.113338799999994
30
0
40
0.49999999999999883
210
0
220
0
230
1
100
AcDbArc
50
164.99999999999844
51
255.00000000000043
0
ARC
5
111
100
AcDbEntity
8
0
100
AcDbCircle
10
103.10785279999999
20
-94.933147300000002
30
0
40
0.50000000000000744
210
0
220
0
230
1
100
AcDbArc
50
254.99999999999883
51
344.9999999999992
0
LWPOLYLINE
5
112
100
AcDbEntity
8
0
100
AcDbPolyline
90
8
70
1
43
0.0
10
88.224999999999994
20
-53.174999999999997
42
0.41421356237309503
10
87.724999999999994
20
-52.674999999999997
10
74.724999999999994
20
-52.674999999999997
42
0.41421356237309503
10
74.225000000000009
20
-53.174999999999997
10
74.225000000000009
20
-66.174999999999997
42
0.41421356237309503
10
74.724999999999994
20
-66.674999999999997
10
87.724999999999994
20
-66.674999999999997
42
0.41421356237309503
10
88.224999999999994
20
-66.174999999999997
0
LWPOLYLINE
5
113
100
AcDbEntity
8
0
100
AcDbPolyline
90
8
70
1
43
0.0
10
92.77500000000002
20
-52.674999999999997
10
105.77500000000001
20
-52.67499999999999
42
-0.41421356237309503
10
106.27500000000001
20
-53.174999999999997
10
106.27500000000001
20
-66.174999999999997
42
-0.41421356237309503
10
105.77500000000001
20
-66.675000000000011
10
92.77500000000002
20
-66.675000000000011
42
-0.41421356237309503
10
92.275000000000006
20
-66.174999999999997
10
92.275000000000034
20
-53.174999999999997
42
-0.41421356237309503
0
LWPOLYLINE
5
114
100
AcDbEntity
8
0
100
AcDbPolyline
90
8
70
1
43
0.0
10
2.5249999999999999
20
-1.5249999999999999
10
15.525000000000002
20
-1.5249999999999997
42
-0.41421356237309503
10
16.024999999999999
20
-2.0250000000000004
10
16.025000000000002
20
-15.025000000000002
42
-0.41421356237309503
10
15.525000000000002
20
-15.525000000000002
10
2.5249999999999999
20
-15.525000000000002
42
-0.41421356237309503
10
2.0250000000000004
20
-15.025000000000004
10
2.0250000000000004
20
-2.0250000000000004
42
-0.41421356237309503
0
LWPOLYLINE
5
115
100
AcDbEntity
8
0
100
AcDbPolyline
90
8
70
1
43
0.0
10
20.575000000000003
20
-1.5249999999999999
10
33.575000000000003
20
-1.5250000000000019
42
-0.41421356237309503
10
34.075000000000003
20
-2.0250000000000004
10
34.075000000000003
20
-15.025000000000002
42
-0.41421356237309503
10
33.575000000000003
20
-15.525000000000002
10
20.575000000000003
20
-15.525
42
-0.4142135623730937
10
20.074999999999999
20
-15.025000000000004
10
20.075000000000003
20
-2.0250000000000004
42
-0.41421356237309503
0
LWPOLYLINE
5
116
100
AcDbEntity
8
0
100
AcDbPolyline
90
8
70
1
43
0.0
10
52.125
20
-2.0250000000000004
42
0.41421356237309503
10
51.625000000000007
20
-1.5250000000000004
10
38.625
20
-1.5250000000000004
42
0.41421356237309503
10
38.125
20
-2.0250000000000004
10
38.125000000000007
20
-15.025000000000002
42
0.41421356237309503
10
38.625
20
-15.525000000000002
10
51.625000000000007
20
-15.525000000000002
42
0.4142135623730937
10
52.125
20
-15.025000000000004
0
LWPOLYLINE
5
117
100
AcDbEntity
8
0
100
AcDbPolyline
90
8
70
1
43
0.0
10
56.675000000000004
20
-15.525000000000002
10
69.674999999999997
20
-15.525000000000002
42
0.4142135623730937
10
70.174999999999997
20
-15.025000000000004
10
70.174999999999997
20
-2.0250000000000004
42
0.41421356237309503
10
69.674999999999997
20
-1.5249999999999999
10
56.675000000000004
20
-1.5250000000000004
42
0.41421356237309503
10
56.175000000000004
20
-2.0250000000000004
10
56.175000000000004
20
-15.025000000000002
42
0.41421356237309503
0
LWPOLYLINE
5
118
100
AcDbEntity
8
0
100
AcDbPolyline
90
8
70
1
43
0.0
10
74.724999999999994
20
-1.5250000000000004
42
0.41421356237309503
10
74.225000000000009
20
-2.0250000000000004
10
74.225000000000009
20
-15.025000000000002
42
0.41421356237309503
10
74.724999999999994
20
-15.525000000000002
10
87.724999999999994
20
-15.525000000000002
42
0.4142135623730937
10
88.224999999999994
20
-15.025000000000004
10
88.224999999999994
20
-2.0250000000000004
42
0.41421356237309503
10
87.724999999999994
20
-1.5250000000000004
0
LWPOLYLINE
5
119
100
AcDbEntity
8
0
100
AcDbPolyline
90
8
70
1
43
0.0
10
92.77500000000002
20
-1.5249999999999999
10
105.77500000000001
20
-1.524999999999993
42
-0.41421356237309503
10
106.27500000000001
20
-2.0250000000000004
10
106.27500000000001
20
-15.025000000000004
42
-0.4142135623730937
10
105.77500000000001
20
-15.525000000000002
10
92.77500000000002
20
-15.525000000000009
42
-0.4142135623730937
10
92.275000000000006
20
-15.025000000000004
10
92.275000000000006
20
-2.0250000000000004
42
-0.41421356237309503
0
LWPOLYLINE
5
120
100
AcDbEntity
8
0
100
AcDbPolyline
90
8
70
1
43
0.0
10
20.575000000000003
20
-18.574999999999999
10
33.575000000000003
20
-18.575000000000003
42
-0.41421356237309503
10
34.075000000000003
20
-19.074999999999999
10
34.075000000000003
20
-32.075000000000003
42
-0.41421356237309503
10
33.575000000000003
20
-32.575000000000003
10
20.575000000000003
20
-32.575000000000003
42
-0.41421356237309503
10
20.075000000000003
20
-32.075000000000003
10
20.075000000000003
20
-19.074999999999999
42
-0.41421356237309503
0
LWPOLYLINE
5
121
100
AcDbEntity
8
0
100
AcDbPolyline
90
8
70
1
43
0.0
10
88.224999999999994
20
-19.074999999999999
42
0.41421356237309503
10
87.724999999999994
20
-18.574999999999999
10
74.724999999999994
20
-18.574999999999999
42
0.41421356237309503
10
74.224999999999994
20
-19.074999999999999
10
74.225000000000009
20
-32.075000000000003
42
0.41421356237309503
10
74.724999999999994
20
-32.575000000000003
10
87.724999999999994
20
-32.575000000000003
42
0.41421356237309503
10
88.224999999999994
20
-32.075000000000003
0
LWPOLYLINE
5
122
100
AcDbEntity
8
0
100
AcDbPolyline
90
8
70
1
43
0.0
10
2.0250000000000004
20
-19.074999999999999
10
2.0250000000000004
20
-32.075000000000003
42
0.41421356237309503
10
2.5249999999999999
20
-32.575000000000003
10
15.525000000000002
20
-32.575000000000003
42
0.41421356237309503
10
16.025000000000002
20
-32.075000000000003
10
16.025000000000002
20
-19.074999999999999
42
0.41421356237309503
10
15.525000000000002
20
-18.574999999999999
10
2.5249999999999999
20
-18.574999999999999
42
0.41421356237309503
0
LWPOLYLINE
5
123
100
AcDbEntity
8
0
100
AcDbPolyline
90
8
70
1
43
0.0
10
52.125
20
-19.074999999999999
42
0.41421356237309503
10
51.625000000000007
20
-18.574999999999999
10
38.625
20
-18.574999999999999
42
0.41421356237309503
10
38.125000000000007
20
-19.074999999999999
10
38.125000000000007
20
-32.075000000000003
42
0.41421356237309503
10
38.625
20
-32.575000000000003
10
51.625000000000007
20
-32.575000000000003
42
0.41421356237309503
10
52.125
20
-32.075000000000003
0
LWPOLYLINE
5
124
100
AcDbEntity
8
0
100
AcDbPolyline
90
8
70
1
43
0.0
10
69.674999999999997
20
-32.575000000000003
42
0.41421356237309503
10
70.174999999999997
20
-32.075000000000003
10
70.174999999999997
20
-19.074999999999999
42
0.41421356237309503
10
69.674999999999997
20
-18.574999999999999
10
56.675000000000004
20
-18.574999999999999
42
0.41421356237309503
10
56.174999999999997
20
-19.074999999999999
10
56.175000000000004
20
-32.075000000000003
42
0.41421356237309503
10
56.675000000000004
20
-32.575000000000003
0
LWPOLYLINE
5
125
100
AcDbEntity
8
0
100
AcDbPolyline
90
8
70
1
43
0.0
10
15.525000000000002
20
-49.625
42
0.41421356237309503
10
16.025000000000002
20
-49.125000000000007
10
16.025000000000002
20
-36.125
42
0.41421356237309503
10
15.525000000000002
20
-35.625000000000007
10
2.5249999999999999
20
-35.625000000000007
42
0.41421356237309503
10
2.0250000000000004
20
-36.125
10
2.0250000000000004
20
-49.125000000000007
42
0.41421356237309503
10
2.5249999999999999
20
-49.625
0
LWPOLYLINE
5
126
100
AcDbEntity
8
0
100
AcDbPolyline
90
8
70
1
43
0.0
10
20.575000000000003
20
-35.625
10
33.575000000000003
20
-35.625000000000007
42
-0.41421356237309503
10
34.075000000000003
20
-36.125
10
34.075000000000003
20
-49.125000000000007
42
-0.41421356237309503
10
33.575000000000003
20
-49.625
10
20.575000000000003
20
-49.625
42
-0.41421356237309503
10
20.074999999999999
20
-49.125000000000007
10
20.075000000000003
20
-36.125
42
-0.41421356237309503
0
LWPOLYLINE
5
127
100
AcDbEntity
8
0
100
AcDbPolyline
90
8
70
1
43
0.0
10
105.77500000000001
20
-32.575000000000003
42
0.41421356237309503
10
106.27500000000001
20
-32.075000000000003
10
106.27500000000001
20
-19.074999999999999
42
0.41421356237309503
10
105.77500000000001
20
-18.574999999999999
10
92.77500000000002
20
-18.574999999999999
42
0.41421356237309503
10
92.275000000000006
20
-19.074999999999999
10
92.275000000000006
20
-32.075000000000003
42
0.41421356237309503
10
92.77500000000002
20
-32.575000000000003
0
LWPOLYLINE
5
128
100
AcDbEntity
8
0
100
AcDbPolyline
90
8
70
1
43
0.0
10
87.724999999999994
20
-49.625
42
0.41421356237309503
10
88.224999999999994
20
-49.125000000000007
10
88.224999999999994
20
-36.125
42
0.41421356237309503
10
87.724999999999994
20
-35.625000000000007
10
74.724999999999994
20
-35.625000000000007
42
0.41421356237309503
10
74.225000000000009
20
-36.125
10
74.225000000000009
20
-49.125000000000007
42
0.41421356237309503
10
74.724999999999994
20
-49.625
0
LWPOLYLINE
5
129
100
AcDbEntity
8
0
100
AcDbPolyline
90
8
70
1
43
0.0
10
51.625000000000007
20
-49.625
42
0.41421356237309503
10
52.125
20
-49.125000000000007
10
52.125
20
-36.125
42
0.41421356237309503
10
51.625000000000007
20
-35.625000000000007
10
38.625
20
-35.625000000000007
42
0.41421356237309503
10
38.125
20
-36.125
10
38.125000000000007
20
-49.125000000000007
42
0.41421356237309503
10
38.625
20
-49.625
0
LWPOLYLINE
5
130
100
AcDbEntity
8
0
100
AcDbPolyline
90
8
70
1
43
0.0
10
56.175000000000004
20
-49.125000000000007
42
0.41421356237309503
10
56.675000000000004
20
-49.625
10
69.674999999999997
20
-49.625
42
0.41421356237309503
10
70.174999999999997
20
-49.125000000000007
10
70.174999999999997
20
-36.125
42
0.41421356237309503
10
69.674999999999997
20
-35.625
10
56.675000000000004
20
-35.625000000000007
42
0.41421356237309503
10
56.175000000000004
20
-36.125
0
LWPOLYLINE
5
131
100
AcDbEntity
8
0
100
AcDbPolyline
90
8
70
1
43
0.0
10
92.77500000000002
20
-35.625
10
105.77500000000001
20
-35.624999999999993
42
-0.41421356237309503
10
106.27500000000001
20
-36.125
10
106.27500000000001
20
-49.125000000000007
42
-0.41421356237309503
10
105.77500000000001
20
-49.625
10
92.77500000000002
20
-49.625000000000014
42
-0.41421356237309503
10
92.275000000000006
20
-49.125000000000007
10
92.275000000000034
20
-36.125
42
-0.41421356237309503
0
LWPOLYLINE
5
132
100
AcDbEntity
8
0
100
AcDbPolyline
90
8
70
1
43
0.0
10
2.5249999999999999
20
-66.675000000000011
10
15.525000000000002
20
-66.674999999999997
42
0.41421356237309503
10
16.025000000000002
20
-66.174999999999997
10
16.025000000000002
20
-53.174999999999997
42
0.41421356237309503
10
15.525000000000002
20
-52.674999999999997
10
2.5249999999999999
20
-52.674999999999997
42
0.41421356237309503
10
2.0250000000000004
20
-53.174999999999997
10
2.0250000000000004
20
-66.174999999999997
42
0.41421356237309503
0
LWPOLYLINE
5
133
100
AcDbEntity
8
0
100
AcDbPolyline
90
8
70
1
43
0.0
10
20.575000000000003
20
-52.674999999999997
42
0.41421356237309503
10
20.075000000000003
20
-53.174999999999997
10
20.075000000000003
20
-66.174999999999997
42
0.41421356237309503
10
20.575000000000003
20
-66.674999999999997
10
33.575000000000003
20
-66.674999999999997
42
0.41421356237309503
10
34.075000000000003
20
-66.174999999999997
10
34.075000000000003
20
-53.174999999999997
42
0.41421356237309503
10
33.575000000000003
20
-52.674999999999997
0
LWPOLYLINE
5
134
100
AcDbEntity
8
0
100
AcDbPolyline
90
8
70
1
43
0.0
10
38.125000000000007
20
-66.174999999999997
42
0.41421356237309503
10
38.625
20
-66.674999999999997
10
51.625000000000007
20
-66.674999999999997
42
0.41421356237309503
10
52.125
20
-66.174999999999997
10
52.125
20
-53.174999999999997
42
0.41421356237309503
10
51.625000000000007
20
-52.674999999999997
10
38.625
20
-52.674999999999997
42
0.41421356237309503
10
38.125000000000007
20
-53.174999999999997
0
LWPOLYLINE
5
135
100
AcDbEntity
8
0
100
AcDbPolyline
90
8
70
1
43
0.0
10
56.675000000000004
20
-66.675000000000011
10
69.674999999999997
20
-66.674999999999997
42
0.41421356237309503
10
70.174999999999997
20
-66.174999999999997
10
70.174999999999997
20
-53.174999999999997
42
0.41421356237309503
10
69.674999999999997
20
-52.674999999999997
10
56.675000000000004
20
-52.674999999999997
42
0.41421356237309503
10
56.174999999999997
20
-53.174999999999997
10
56.175000000000004
20
-66.174999999999997
42
0.41421356237309503
0
LWPOLYLINE
5
136
100
AcDbEntity
8
0
100
AcDbPolyline
90
8
70
1
43
0.0
10
16.024999999999999
20
-70.224999999999994
10
16.025000000000009
20
-83.224999999999994
42
-0.41421356237309503
10
15.525000000000002
20
-83.725000000000009
10
2.5249999999999999
20
-83.725000000000009
42
-0.41421356237309503
10
2.0250000000000004
20
-83.224999999999994
10
2.0250000000000017
20
-70.224999999999994
42
-0.41421356237309503
10
2.5249999999999999
20
-69.724999999999994
10
15.525000000000002
20
-69.724999999999994
42
-0.41421356237309503
0
LINE
5
137
100
AcDbEntity
8
0
100
AcDbLine
10
106.95546329999999
20
-82.505521000000002
30
0
11
103.59081570000001
21
-95.06255680000001
31
0
0
ARC
5
138
100
AcDbEntity
8
0
100
AcDbCircle
10
86.521946700000001
20
-86.47798640000002
30
0
40
0.50000000000000744
210
0
220
0
230
1
100
AcDbArc
50
254.99999999999883
51
345.0000000000008
0
LINE
5
139
100
AcDbEntity
8
0
100
AcDbLine
10
93.432501700000017
20
-78.882054400000015
30
0
11
90.067854099999991
21
-91.43909020000001
31
0
0
LINE
5
140
100
AcDbEntity
8
0
100
AcDbLine
10
123.5413695
20
-90.960681899999997
30
0
11
120.1767219
21
-103.51771770000001
31
0
0
ARC
5
141
100
AcDbEntity
8
0
100
AcDbCircle
10
123.0584066
20
-90.831272400000017
30
0
40
0.50000000000000744
210
0
220
0
230
1
100
AcDbArc
50
-15.000000000001153
51
75.000000000000824
0
ARC
5
142
100
AcDbEntity
8
0
100
AcDbCircle
10
110.50137079999999
20
-87.466624800000005
30
0
40
0.50000000000000744
210
0
220
-0
230
1
100
AcDbArc
50
74.999999999998849
51
165.00000000000085
0
ARC
5
143
100
AcDbEntity
8
0
100
AcDbCircle
10
107.13672320000001
20
-100.0236606
30
0
40
0.50000000000000744
210
0
220
0
230
1
100
AcDbArc
50
164.99999999999929
51
254.99999999999923
0
ARC
5
144
100
AcDbEntity
8
0
100
AcDbCircle
10
119.69375900000003
20
-103.38830820000001
30
0
40
0.50000000000000744
210
0
220
0
230
1
100
AcDbArc
50
254.99999999999923
51
344.9999999999992
0
ARC
5
145
100
AcDbEntity
8
0
100
AcDbCircle
10
89.886594299999999
20
-73.920950599999998
30
0
40
0.50000000000000511
210
0
220
0
230
1
100
AcDbArc
50
-14.999999999999169
51
74.999999999998849
0
LINE
5
146
100
AcDbEntity
8
0
100
AcDbLine
10
102.97844330000001
20
-95.41611020000002
30
0
11
90.421407500000001
21
-92.051462599999994
31
0
0
LINE
5
147
100
AcDbEntity
8
0
100
AcDbLine
10
106.60190990000002
20
-81.893148599999989
30
0
11
94.044874100000001
21
-78.528501000000006
31
0
0
ARC
5
148
100
AcDbEntity
8
0
100
AcDbCircle
10
106.47250040000002
20
-82.376111499999993
30
0
40
0.50000000000000744
210
0
220
0
230
1
100
AcDbArc
50
-15.000000000001153
51
75.000000000000412
0
ARC
5
149
100
AcDbEntity
8
0
100
AcDbCircle
10
77.32955849999999
20
-70.556303000000014
30
0
40
0.49999999999999656
210
0
220
-0
230
1
100
AcDbArc
50
74.999999999998849
51
164.99999999999844
0
LINE
5
150
100
AcDbEntity
8
0
100
AcDbLine
10
76.846595599999986
20
-70.426893500000006
30
0
11
73.481948000000003
21
-82.9839293
31
0
0
LWPOLYLINE
5
151
100
AcDbEntity
8
0
100
AcDbPolyline
90
15
70
1
43
0.0
10
108.27500000000028
20
4.4749999999999996
10
0.024999999999977263
20
4.4750000000000014
42
0.4142135623730952
10
-3.9750000000000085
20
0.47500000000001985
10
-3.9750000000000014
20
-85.676636492295415
42
0.41796236401033915
10
0.027470855256347095
20
-89.724999999999994
10
58.488231862427838
20
-89.724999999999909
42
-0.23168223747410224
10
96.920445182985517
20
-108.54322161396669
42
0.16365365050096772
10
107.54226237094628
20
-115.59727996933808
10
118.24233465745613
20
-118.46435576614199
42
0.41421356416930621
10
123.14131416630974
20
-115.63592864703908
10
132.16788719229666
20
-81.948299476414263
42
0.4142135631391724
10
129.33946005673914
20
-77.049319988547552
10
115.23972383025233
20
-73.271307094871602
42
-0.33945425963276593
10
112.27500000000019
20
-69.407603786858374
10
112.27500000000022
20
0.47500000000012765
42
0.41421356237309059
0
LINE
5
152
100
AcDbEntity
8
0
100
AcDbLine
10
125.82931005462179
20
-76.108778140550115
30
0
11
113.63355059859423
21
-72.840934279294885
31
0
0
LWPOLYLINE
5
153
100
AcDbEntity
8
0
100
AcDbPolyline
90
8
70
1
43
0.0
10
199.93074409875095
20
-1.5249999999999986
42
0.41421356237309503
10
199.43074409875095
20
-2.0249999999999968
10
199.43074409875095
20
-15.025000000000004
42
0.41421356237309503
10
199.93074409875095
20
-15.525000000000002
10
212.93074409875095
20
-15.525000000000002
42
0.41421356237309503
10
213.43074409875098
20
-15.025000000000004
10
213.43074409875098
20
-2.0249999999999968
42
0.41421356237309503
10
212.93074409875095
20
-1.5249999999999986
0
LWPOLYLINE
5
154
100
AcDbEntity
8
0
100
AcDbPolyline
90
8
70
1
43
0.0
10
195.38074409875097
20
-53.174999999999997
42
0.41421356237309503
10
194.88074409875097
20
-52.674999999999997
10
181.88074409875099
20
-52.674999999999997
42
0.41421356237309503
10
181.38074409875094
20
-53.174999999999997
10
181.38074409875094
20
-66.174999999999997
42
0.41421356237309503
10
181.88074409875099
20
-66.674999999999997
10
194.88074409875097
20
-66.674999999999997
42
0.41421356237309503
10
195.38074409875097
20
-66.174999999999997
0
LWPOLYLINE
5
155
100
AcDbEntity
8
0
100
AcDbPolyline
90
8
70
1
43
0.0
10
177.33074409875093
20
-53.174999999999997
42
0.41421356237309503
10
176.83074409875098
20
-52.674999999999997
10
163.83074409875096
20
-52.674999999999997
42
0.41421356237309503
10
163.33074409875096
20
-53.174999999999997
10
163.33074409875096
20
-66.174999999999997
42
0.41421356237309503
10
163.83074409875096
20
-66.675000000000011
10
176.83074409875098
20
-66.675000000000011
42
0.41421356237309503
10
177.33074409875093
20
-66.174999999999997
0
LWPOLYLINE
5
156
100
AcDbEntity
8
0
100
AcDbPolyline
90
8
70
1
43
0.0
10
163.33074409875096
20
-36.125000000000007
10
163.33074409875096
20
-49.125000000000007
42
0.41421356237309503
10
163.83074409875096
20
-49.625
10
176.83074409875098
20
-49.625
42
0.41421356237309503
10
177.33074409875093
20
-49.125000000000007
10
177.33074409875093
20
-36.125000000000007
42
0.41421356237309503
10
176.83074409875098
20
-35.625
10
163.83074409875096
20
-35.625
42
0.41421356237309503
0
LWPOLYLINE
5
157
100
AcDbEntity
8
0
100
AcDbPolyline
90
8
70
1
43
0.0
10
181.38074409875094
20
-49.125000000000007
42
0.41421356237309503
10
181.88074409875099
20
-49.625
10
194.88074409875097
20
-49.625
42
0.41421356237309503
10
195.38074409875097
20
-49.125000000000007
10
195.38074409875097
20
-36.125000000000007
42
0.41421356237309503
10
194.88074409875097
20
-35.625
10
181.88074409875099
20
-35.625
42
0.41421356237309503
10
181.38074409875094
20
-36.125000000000007
0
LWPOLYLINE
5
158
100
AcDbEntity
8
0
100
AcDbPolyline
90
15
70
1
43
0.0
10
211.11751223632311
20
-89.725000000000037
42
0.23168223747410213
10
172.68529891576549
20
-108.54322161396669
42
-0.1636536505009677
10
162.06348172780469
20
-115.59727996933808
10
151.36340944129483
20
-118.46435576614199
42
-0.41421356416930621
10
146.46442993244122
20
-115.63592864703908
10
137.43785690645433
20
-81.948299476414263
42
-0.4142135631391724
10
140.26628404201182
20
-77.049319988547552
10
154.36602026849863
20
-73.271307094871602
42
0.33945425963276593
10
157.33074409875078
20
-69.407603786858374
10
157.33074409875073
20
0.47500000000013615
42
-0.41421356237309115
10
161.3307440987507
20
4.4749999999999979
10
269.58074409875098
20
4.4750000000000156
42
-0.41421356237309631
10
273.58074409875098
20
0.47500000000001208
10
273.58074409875098
20
-85.676636492295415
42
-0.41796236401033904
10
269.57827324349461
20
-89.724999999999994
0
LWPOLYLINE
5
159
100
AcDbEntity
8
0
100
AcDbPolyline
90
8
70
1
43
0.0
10
199.93074409875095
20
-35.625
42
0.41421356237309503
10
199.43074409875095
20
-36.125000000000007
10
199.43074409875095
20
-49.125000000000007
42
0.41421356237309503
10
199.93074409875095
20
-49.625
10
212.93074409875095
20
-49.625
42
0.41421356237309503
10
213.43074409875098
20
-49.125000000000007
10
213.43074409875098
20
-36.125000000000007
42
0.41421356237309503
10
212.93074409875095
20
-35.625
0
LWPOLYLINE
5
160
100
AcDbEntity
8
0
100
AcDbPolyline
90
8
70
1
43
0.0
10
199.93074409875095
20
-52.674999999999997
42
0.41421356237309503
10
199.43074409875095
20
-53.174999999999997
10
199.43074409875095
20
-66.174999999999997
42
0.41421356237309503
10
199.93074409875095
20
-66.675000000000011
10
212.93074409875095
20
-66.675000000000011
42
0.41421356237309503
10
213.43074409875098
20
-66.174999999999997
10
213.43074409875098
20
-53.174999999999997
42
0.41421356237309503
10
212.93074409875095
20
-52.674999999999997
0
LWPOLYLINE
5
161
100
AcDbEntity
8
0
100
AcDbPolyline
90
8
70
1
43
0.0
10
194.88074409875097
20
-32.575000000000003
10
181.88074409875099
20
-32.575000000000045
42
-0.41421356237309503
10
181.38074409875094
20
-32.075000000000003
10
181.38074409875099
20
-19.074999999999996
42
-0.41421356237309503
10
181.88074409875099
20
-18.574999999999999
10
194.88074409875097
20
-18.574999999999989
42
-0.41421356237309503
10
195.38074409875097
20
-19.074999999999996
10
195.38074409875097
20
-32.075000000000003
42
-0.41421356237309503
0
LWPOLYLINE
5
162
100
AcDbEntity
8
0
100
AcDbPolyline
90
8
70
1
43
0.0
10
199.93074409875095
20
-18.574999999999999
42
0.41421356237309503
10
199.43074409875095
20
-19.074999999999996
10
199.43074409875095
20
-32.075000000000003
42
0.41421356237309503
10
199.93074409875095
20
-32.575000000000003
10
212.93074409875095
20
-32.575000000000003
42
0.41421356237309503
10
213.43074409875098
20
-32.075000000000003
10
213.43074409875098
20
-19.074999999999996
42
0.41421356237309503
10
212.93074409875095
20
-18.574999999999999
0
LWPOLYLINE
5
163
100
AcDbEntity
8
0
100
AcDbPolyline
90
8
70
1
43
0.0
10
253.58074409875093
20
-36.125000000000007
10
253.58074409875093
20
-49.125000000000007
42
0.41421356237309503
10
254.08074409875098
20
-49.625
10
267.08074409875098
20
-49.625
42
0.41421356237309503
10
267.58074409875098
20
-49.125000000000007
10
267.58074409875098
20
-36.125000000000007
42
0.41421356237309503
10
267.08074409875098
20
-35.625
10
254.08074409875098
20
-35.625
42
0.41421356237309503
0
LWPOLYLINE
5
164
100
AcDbEntity
8
0
100
AcDbPolyline
90
8
70
1
43
0.0
10
176.83074409875098
20
-32.575000000000003
10
163.83074409875096
20
-32.57500000000001
42
-0.41421356237309503
10
163.33074409875096
20
-32.075000000000003
10
163.33074409875096
20
-19.074999999999996
42
-0.41421356237309503
10
163.83074409875096
20
-18.574999999999999
10
176.83074409875098
20
-18.575000000000024
42
-0.41421356237309503
10
177.33074409875093
20
-19.074999999999996
10
177.33074409875098
20
-32.075000000000003
42
-0.41421356237309503
0
LWPOLYLINE
5
165
100
AcDbEntity
8
0
100
AcDbPolyline
90
8
70
1
43
0.0
10
195.38074409875097
20
-2.0249999999999968
10
195.38074409875097
20
-15.025000000000004
42
-0.41421356237309503
10
194.88074409875097
20
-15.525000000000002
10
181.88074409875099
20
-15.525000000000047
42
-0.41421356237309503
10
181.38074409875094
20
-15.025000000000004
10
181.38074409875099
20
-2.0249999999999968
42
-0.41421356237309503
10
181.88074409875099
20
-1.5249999999999986
10
194.88074409875097
20
-1.5249999999999897
42
-0.41421356237309503
0
LINE
5
166
100
AcDbEntity
8
0
100
AcDbLine
10
163.00383419875095
20
-81.893148599999989
30
0
11
175.560869998751
21
-78.528501000000006
31
0
0
LWPOLYLINE
5
167
100
AcDbEntity
8
0
100
AcDbPolyline
90
8
70
1
43
0.0
10
249.53074409875097
20
-36.125000000000007
10
249.53074409875097
20
-49.125000000000007
42
-0.41421356237309503
10
249.03074409875097
20
-49.625
10
236.03074409875097
20
-49.62500000000005
42
-0.41421356237309503
10
235.53074409875094
20
-49.125000000000007
10
235.53074409875097
20
-36.125000000000007
42
-0.41421356237309503
10
236.03074409875097
20
-35.625
10
249.03074409875097
20
-35.625
42
-0.41421356237309503
0
LWPOLYLINE
5
168
100
AcDbEntity
8
0
100
AcDbPolyline
90
8
70
1
43
0.0
10
177.33074409875093
20
-2.0249999999999968
42
0.41421356237309503
10
176.83074409875098
20
-1.5249999999999986
10
163.83074409875096
20
-1.5249999999999986
42
0.41421356237309503
10
163.33074409875096
20
-2.0249999999999968
10
163.33074409875096
20
-15.025000000000004
42
0.41421356237309503
10
163.83074409875096
20
-15.525000000000002
10
176.83074409875098
20
-15.525000000000002
42
0.41421356237309503
10
177.33074409875093
20
-15.025000000000004
0
LINE
5
169
100
AcDbEntity
8
0
100
AcDbLine
10
166.62730079875098
20
-95.41611020000002
30
0
11
179.18433659875097
21
-92.051462599999994
31
0
0
ARC
5
170
100
AcDbEntity
8
0
100
AcDbCircle
10
192.27618559875097
20
-70.556303000000014
30
0
40
0.50000000000000511
210
0
220
-0
230
1
100
AcDbArc
50
15.000000000000734
51
104.99999999999801
0
LINE
5
171
100
AcDbEntity
8
0
100
AcDbLine
10
192.14677609875096
20
-70.073340099999996
30
0
11
179.58974029875097
21
-73.437987699999994
31
0
0
LWPOLYLINE
5
172
100
AcDbEntity
8
0
100
AcDbPolyline
90
8
70
1
43
0.0
10
231.48074409875096
20
-36.125000000000007
10
231.48074409875096
20
-49.125000000000007
42
-0.41421356237309503
10
230.98074409875096
20
-49.625
10
217.98074409875099
20
-49.62500000000005
42
-0.41421356237309503
10
217.48074409875096
20
-49.125000000000007
10
217.48074409875099
20
-36.125000000000007
42
-0.41421356237309503
10
217.98074409875099
20
-35.625
10
230.98074409875096
20
-35.625
42
-0.41421356237309503
0
ARC
5
173
100
AcDbEntity
8
0
100
AcDbCircle
10
195.64083319875095
20
-83.113338799999994
30
0
40
0.50000000000000289
210
0
220
0
230
1
100
AcDbArc
50
-75.000000000001947
51
15.000000000000734
0
ARC
5
174
100
AcDbEntity
8
0
100
AcDbCircle
10
179.71914979875095
20
-73.920950599999998
30
0
40
0.49999999999999428
210
0
220
0
230
1
100
AcDbArc
50
104.99999999999801
51
195.00000000000082
0
LWPOLYLINE
5
175
100
AcDbEntity
8
0
100
AcDbPolyline
90
8
70
1
43
0.0
10
249.03074409875097
20
-18.574999999999999
10
236.03074409875097
20
-18.574999999999999
42
0.41421356237309503
10
235.53074409875094
20
-19.074999999999996
10
235.53074409875094
20
-32.075000000000003
42
0.41421356237309503
10
236.03074409875097
20
-32.575000000000003
10
249.03074409875097
20
-32.575000000000003
42
0.41421356237309503
10
249.53074409875097
20
-32.075000000000003
10
249.53074409875097
20
-19.074999999999996
42
0.41421356237309503
0
LWPOLYLINE
5
176
100
AcDbEntity
8
0
100
AcDbPolyline
90
8
70
1
43
0.0
10
230.98074409875096
20
-52.674999999999997
10
217.98074409875099
20
-52.674999999999997
42
0.41421356237309503
10
217.48074409875096
20
-53.174999999999997
10
217.48074409875096
20
-66.174999999999997
42
0.41421356237309503
10
217.98074409875099
20
-66.674999999999997
10
230.98074409875096
20
-66.674999999999997
42
0.41421356237309503
10
231.48074409875096
20
-66.174999999999997
10
231.48074409875096
20
-53.174999999999997
42
0.41421356237309503
0
LWPOLYLINE
5
177
100
AcDbEntity
8
0
100
AcDbPolyline
90
8
70
1
43
0.0
10
267.58074409875098
20
-19.074999999999996
42
0.41421356237309503
10
267.08074409875098
20
-18.574999999999999
10
254.08074409875098
20
-18.574999999999999
42
0.41421356237309503
10
253.58074409875093
20
-19.074999999999996
10
253.58074409875093
20
-32.075000000000003
42
0.41421356237309503
10
254.08074409875098
20
-32.575000000000003
10
267.08074409875098
20
-32.575000000000003
42
0.41421356237309503
10
267.58074409875098
20
-32.075000000000003
0
LWPOLYLINE
5
178
100
AcDbEntity
8
0
100
AcDbPolyline
90
8
70
1
43
0.0
10
267.58074409875098
20
-70.224999999999994
42
0.41421356237309503
10
267.08074409875098
20
-69.724999999999994
10
254.08074409875098
20
-69.724999999999994
42
0.41421356237309503
10
253.58074409875093
20
-70.224999999999994
10
253.58074409875093
20
-83.224999999999994
42
0.41421356237309503
10
254.08074409875098
20
-83.725000000000009
10
267.08074409875098
20
-83.725000000000009
42
0.41421356237309503
10
267.58074409875098
20
-83.224999999999994
0
LWPOLYLINE
5
179
100
AcDbEntity
8
0
100
AcDbPolyline
90
8
70
1
43
0.0
10
267.08074409875098
20
-52.674999999999997
10
254.08074409875098
20
-52.674999999999997
42
0.41421356237309503
10
253.58074409875093
20
-53.174999999999997
10
253.58074409875093
20
-66.174999999999997
42
0.41421356237309503
10
254.08074409875098
20
-66.675000000000011
10
267.08074409875098
20
-66.675000000000011
42
0.41421356237309503
10
267.58074409875098
20
-66.174999999999997
10
267.58074409875098
20
-53.174999999999997
42
0.41421356237309503
0
LWPOLYLINE
5
180
100
AcDbEntity
8
0
100
AcDbPolyline
90
8
70
1
43
0.0
10
236.03074409875097
20
-52.674999999999997
42
0.41421356237309503
10
235.53074409875094
20
-53.174999999999997
10
235.53074409875094
20
-66.174999999999997
42
0.41421356237309503
10
236.03074409875097
20
-66.675000000000011
10
249.03074409875097
20
-66.674999999999997
42
0.41421356237309503
10
249.53074409875097
20
-66.174999999999997
10
249.53074409875097
20
-53.174999999999997
42
0.41421356237309503
10
249.03074409875097
20
-52.674999999999997
0
LWPOLYLINE
5
181
100
AcDbEntity
8
0
100
AcDbPolyline
90
8
70
1
43
0.0
10
249.03074409875097
20
-15.525000000000002
42
0.41421356237309503
10
249.53074409875097
20
-15.025000000000004
10
249.53074409875097
20
-2.0249999999999968
42
0.41421356237309503
10
249.03074409875097
20
-1.5249999999999986
10
236.03074409875097
20
-1.5249999999999986
42
0.41421356237309503
10
235.53074409875094
20
-2.0249999999999968
10
235.53074409875094
20
-15.025000000000004
42
0.41421356237309503
10
236.03074409875097
20
-15.525000000000002
0
LWPOLYLINE
5
182
100
AcDbEntity
8
0
100
AcDbPolyline
90
8
70
1
43
0.0
10
230.98074409875096
20
-15.525000000000002
10
217.98074409875099
20
-15.525000000000047
42
-0.41421356237309503
10
217.48074409875096
20
-15.025000000000004
10
217.48074409875099
20
-2.0249999999999968
42
-0.41421356237309503
10
217.98074409875099
20
-1.5249999999999986
10
230.98074409875096
20
-1.5249999999999897
42
-0.41421356237309503
10
231.48074409875096
20
-2.0249999999999968
10
231.48074409875096
20
-15.025000000000004
42
-0.41421356237309503
0
ARC
5
183
100
AcDbEntity
8
0
100
AcDbCircle
10
163.13324369875096
20
-82.376111499999993
30
0
40
0.50000000000001199
210
0
220
0
230
1
100
AcDbArc
50
105.00000000000117
51
195.00000000000071
0
LWPOLYLINE
5
184
100
AcDbEntity
8
0
100
AcDbPolyline
90
8
70
1
43
0.0
10
231.48074409875096
20
-70.224999999999994
10
231.48074409875096
20
-83.224999999999994
42
-0.41421356237309503
10
230.98074409875096
20
-83.725000000000009
10
217.98074409875099
20
-83.725000000000037
42
-0.41421356237309503
10
217.48074409875096
20
-83.224999999999994
10
217.48074409875099
20
-70.224999999999994
42
-0.41421356237309503
10
217.98074409875099
20
-69.724999999999994
10
230.98074409875096
20
-69.724999999999994
42
-0.41421356237309503
0
LWPOLYLINE
5
185
100
AcDbEntity
8
0
100
AcDbPolyline
90
8
70
1
43
0.0
10
253.58074409875093
20
-2.0249999999999968
10
253.58074409875093
20
-15.025000000000004
42
0.41421356237309503
10
254.08074409875098
20
-15.525000000000002
10
267.08074409875098
20
-15.525000000000002
42
0.41421356237309503
10
267.58074409875098
20
-15.025000000000004
10
267.58074409875098
20
-2.0249999999999968
42
0.41421356237309503
10
267.08074409875098
20
-1.5249999999999986
10
254.08074409875098
20
-1.5249999999999986
42
0.41421356237309503
0
LWPOLYLINE
5
186
100
AcDbEntity
8
0
100
AcDbPolyline
90
8
70
1
43
0.0
10
235.53074409875094
20
-83.224999999999994
42
0.41421356237309503
10
236.03074409875097
20
-83.725000000000009
10
249.03074409875097
20
-83.725000000000009
42
0.41421356237309503
10
249.53074409875097
20
-83.224999999999994
10
249.53074409875097
20
-70.224999999999994
42
0.41421356237309503
10
249.03074409875097
20
-69.724999999999994
10
236.03074409875097
20
-69.724999999999994
42
0.41421356237309503
10
235.53074409875094
20
-70.224999999999994
0
LWPOLYLINE
5
187
100
AcDbEntity
8
0
100
AcDbPolyline
90
8
70
1
43
0.0
10
231.48074409875096
20
-19.074999999999996
10
231.48074409875096
20
-32.075000000000003
42
-0.41421356237309503
10
230.98074409875096
20
-32.575000000000003
10
217.98074409875099
20
-32.575000000000045
42
-0.41421356237309503
10
217.48074409875096
20
-32.075000000000003
10
217.48074409875099
20
-19.074999999999996
42
-0.41421356237309503
10
217.98074409875099
20
-18.574999999999999
10
230.98074409875096
20
-18.574999999999989
42
-0.41421356237309503
0
ARC
5
188
100
AcDbEntity
8
0
100
AcDbCircle
10
162.46902089875095
20
-100.0236606
30
0
40
0.50000000000000289
210
0
220
0
230
1
100
AcDbArc
50
-74.999999999999261
51
15.000000000000734
0
LINE
5
189
100
AcDbEntity
8
0
100
AcDbLine
10
162.65028079875097
20
-82.505521000000002
30
0
11
166.01492839875095
21
-95.06255680000001
31
0
0
LINE
5
190
100
AcDbEntity
8
0
100
AcDbLine
10
192.75914849875096
20
-70.426893500000006
30
0
11
196.12379609875094
21
-82.9839293
31
0
0
ARC
5
191
100
AcDbEntity
8
0
100
AcDbCircle
10
179.05492709875097
20
-91.568499700000018
30
0
40
0.50000000000000289
210
0
220
0
230
1
100
AcDbArc
50
-74.999999999998849
51
15.000000000001567
0
LINE
5
192
100
AcDbEntity
8
0
100
AcDbLine
10
146.417927998751
20
-90.348309499999999
30
0
11
158.97496379875096
21
-86.983661900000001
31
0
0
LINE
5
193
100
AcDbEntity
8
0
100
AcDbLine
10
176.17324239875097
20
-78.882054400000015
30
0
11
179.53788999875098
21
-91.43909020000001
31
0
0
LINE
5
194
100
AcDbEntity
8
0
100
AcDbLine
10
146.06437459875096
20
-90.960681899999997
30
0
11
149.42902219875097
21
-103.51771770000001
31
0
0
LINE
5
195
100
AcDbEntity
8
0
100
AcDbLine
10
195.77024269875096
20
-83.596301700000012
30
0
11
183.21320689875097
21
-86.960949299999996
31
0
0
LINE
5
196
100
AcDbEntity
8
0
100
AcDbLine
10
179.23618689875099
20
-74.050360100000006
30
0
11
182.60083449875097
21
-86.6073959
31
0
0
LINE
5
197
100
AcDbEntity
8
0
100
AcDbLine
10
159.58733619875093
20
-87.337215299999997
30
0
11
162.95198379875097
21
-99.894251099999991
31
0
0
ARC
5
198
100
AcDbEntity
8
0
100
AcDbCircle
10
183.08379739875096
20
-86.47798640000002
30
0
40
0.50000000000000744
210
0
220
0
230
1
100
AcDbArc
50
194.99999999999915
51
285.00000000000119
0
ARC
5
199
100
AcDbEntity
8
0
100
AcDbCircle
10
146.54733749875098
20
-90.831272400000017
30
0
40
0.50000000000000744
210
0
220
0
230
1
100
AcDbArc
50
105.00000000000075
51
195.00000000000071
0
ARC
5
200
100
AcDbEntity
8
0
100
AcDbCircle
10
175.69027949875101
20
-79.01146390000001
30
0
40
0.49999999999997091
210
0
220
-0
230
1
100
AcDbArc
50
15.00000000000083
51
105.00000000000431
0
LINE
5
201
100
AcDbEntity
8
0
100
AcDbLine
10
143.77643404412919
20
-76.108778140550115
30
0
11
155.97219350015675
21
-72.840934279294885
31
0
0
ARC
5
202
100
AcDbEntity
8
0
100
AcDbCircle
10
159.10437329875097
20
-87.466624800000005
30
0
40
0.50000000000000744
210
0
220
-0
230
1
100
AcDbArc
50
14.99999999999916
51
105.00000000000117
0
ARC
5
203
100
AcDbEntity
8
0
100
AcDbCircle
10
149.91198509875093
20
-103.38830820000001
30
0
40
0.50000000000000744
210
0
220
0
230
1
100
AcDbArc
50
195.00000000000153
51
285.00000000000074
0
LINE
5
204
100
AcDbEntity
8
0
100
AcDbLine
10
150.04139459875094
20
-103.8712711
30
0
11
162.59843039875093
21
-100.50662350000002
31
0
0
ARC
5
205
100
AcDbEntity
8
0
100
AcDbCircle
10
166.49789129875097
20
-94.933147300000002
30
0
40
0.49999999999997319
210
0
220
0
230
1
100
AcDbArc
50
195.00000000000153
51
285.00000000000119
0
LWPOLYLINE
5
206
100
AcDbEntity
8
0
100
AcDbPolyline
90
15
70
1
43
0.0
10
0.02695274452985455
20
-88.224999946312408
10
58.488231862427838
20
-88.224999999999895
42
-0.23168223747410224
10
98.105310048413173
20
-107.62338725351088
42
0.16365365050096783
10
107.93049094727685
20
-114.1483912322294
10
118.6305632337867
20
-117.01546702903335
42
0.41421356416930755
10
121.69242542682022
20
-115.24770007959403
10
130.71899845280714
20
-81.560070908969209
42
0.41421356313917362
10
128.95123149308372
20
-78.498208729052521
10
114.85149526659688
20
-74.720195835376558
42
-0.33945425963276593
10
110.77500000000018
20
-69.407603786858388
10
110.77500000000022
20
0.47500000000012754
42
0.41421356237308793
10
108.27500000000028
20
2.974999999999981
10
0.024999999999977263
20
2.975000000000001
42
0.4142135623730952
10
-2.4750000000000014
20
0.47500000000002052
10
-2.4750000000000014
20
-85.686765909165956
42
0.41896427837437655
0
LWPOLYLINE
5
207
100
AcDbEntity
8
0
100
AcDbPolyline
90
15
70
1
43
0.0
10
161.3307440987507
20
2.9749999999999979
10
269.58074409875098
20
2.9750000000000298
42
-0.41421356237309631
10
272.08074409875098
20
0.47500000000001874
10
272.08074409875104
20
-85.686765909167633
42
-0.41896427837417716
10
269.57879135422115
20
-88.224999946312408
10
211.11751223632311
20
-88.225000000000037
42
0.23168223747410241
10
171.50043405033779
20
-107.62338725351093
42
-0.16365365050096714
10
161.67525315147412
20
-114.1483912322294
10
150.97518086496427
20
-117.01546702903335
42
-0.41421356416930755
10
147.91331867193074
20
-115.24770007959403
10
138.88674564594382
20
-81.560070908969209
42
-0.41421356313917423
10
140.65451260566726
20
-78.498208729052507
10
154.75424883215408
20
-74.720195835376558
42
0.33945425963276632
10
158.83074409875078
20
-69.407603786858374
10
158.83074409875073
20
0.47500000000013631
42
-0.41421356237308876
0
ENDSEC
0
SECTION
2
OBJECTS
0
DICTIONARY
5
C
100
AcDbDictionary
3
ACAD_GROUP
350
D
3
ACAD_MLINESTYLE
350
17
0
DICTIONARY
5
D
100
AcDbDictionary
0
DICTIONARY
5
1A
330
C
100
AcDbDictionary
0
DICTIONARY
5
17
100
AcDbDictionary
0
ENDSEC
0
EOF
